<?xml version="1.0" encoding="utf-8"?>
<!-- Generator: Adobe Illustrator 28.0.0, SVG Export Plug-In . SVG Version: 6.00 Build 0)  -->
<svg version="1.1" id="Layer_1" xmlns="http://www.w3.org/2000/svg" xmlns:xlink="http://www.w3.org/1999/xlink" x="0px" y="0px"
	 viewBox="0 0 500 500" style="enable-background:new 0 0 500 500;" xml:space="preserve">
<style type="text/css">
	.st0{fill:#0C7197;}
	.st1{fill:#C6C4C5;}
	.st2{fill:#808187;}
	.st3{fill:#D1CFCE;}
	.st4{fill:#28C7E4;}
	.st5{fill:#BBB9BA;}
	.st6{fill:#D7D5D5;}
	.st7{fill:#EE9819;}
	.st8{fill:#5F6066;}
	.st9{fill:#CCCAC9;}
	.st10{fill:#33343C;}
	.st11{fill:#14161E;}
	.st12{fill:#DDDBDB;}
	.st13{fill:#E7E6E4;}
	.st14{fill:#F1F2F0;}
	.st15{fill:#C0BEBE;}
</style>
<path class="st0" d="M43.2,409.9c-0.3-0.2-0.5-0.5-0.8-0.7c0-2.8-0.2-5.6,0-8.4c0.1-1.8-0.8-3.7,0.8-5.3c2.1,0.8,4.1,1.6,6.2,2.3
	c19,5.9,37.9,11.8,56.9,17.7c23.9,7.5,47.8,15,71.7,22.5c17.2,5.4,34.4,10.7,51.7,16c15.2,4.6,30.4,8.9,45.6,13.7
	c2.9,0.9,5.4,0.8,8.2-0.1c33.2-11.2,66.6-22,99.7-33.4c30.9-10.6,62-20.5,92.6-31.7c0.3-0.1,0.5-0.2,0.8-0.3
	c0.1,0.1,0.2,0.2,0.3,0.3c0,3.8,0,7.7,0,11.5c-0.2,0.3-0.5,0.5-0.7,0.8c-0.9,0.2-2,0-2.1,1.4c-0.8,0.1-1.7-0.2-2.3,0.5
	c-1.1,0.1-2.2,0.2-2.8,1.3c-0.2-0.5-0.5-0.5-0.9-0.1c-0.5,0.1-0.9,0.2-1.4,0.2c-0.2-0.3-0.3-0.3-0.5,0l-0.1,0
	c-7.4,2-14.7,4.4-21.8,7.4c-4.9,1.4-9.6,3.1-14.3,5c-1.1,0.3-2.3,0.5-3.3,0.9c-9.3,3.4-18.6,6.8-28,9.9c-18.3,6-36.4,12.4-54.7,18.5
	c-11.6,3.8-23.2,7.6-34.7,11.7c-3.2,1.1-6.6,1.6-9.4,3.6c-1.4-0.3-2.5,0.2-3.5,1.1l-0.1-0.1l-0.1,0.1c-1.3,0.1-2.5,0.3-3.5,1.3
	l-0.2-0.1l-0.1,0.1c-2.5,0.5-4.8,1.3-7,2.5l0,0c-1.2,0.2-2.3,0.4-3.2,1.3c-3.4,1.4-6.6,0.2-9.9-0.8c-40.6-12.7-81.2-25.4-121.8-38
	c-25.4-7.9-50.6-16.1-76.2-23.3c-9.7-2.7-19.3-5.9-29-8.9c0,0,0,0.1,0,0.1C44.7,409.8,44,409.7,43.2,409.9z"/>
<path class="st1" d="M444.4,425.6c7.1-3,14.4-5.4,21.8-7.4c0,0.4,0,0.8,0,1.2c-0.2,0-0.4,0-0.6,0c-5.9,1.9-11.7,3.6-17.5,5.6
	C446.8,425.4,445.7,425.7,444.4,425.6z"/>
<path class="st2" d="M476.9,414c0-3.8,0-7.7,0-11.5c1,3.9,0.5,7.8,0.3,11.6C477.1,414.1,477,414.1,476.9,414z"/>
<path class="st3" d="M469,418c0.6-1.1,1.7-1.3,2.8-1.3C471.5,418.5,470.1,418,469,418z"/>
<path class="st3" d="M474.1,416.1c0.1-1.4,1.2-1.2,2.1-1.4C476.2,416.2,475.2,416.2,474.1,416.1z"/>
<path class="st3" d="M466.2,419.4c0-0.4,0-0.8,0-1.2c0,0,0.1,0,0.1,0c0,0,0.2,0,0.2,0l0.2,0c0.5-0.1,0.9-0.2,1.4-0.2
	C468,419.1,467.2,419.4,466.2,419.4z"/>
<path class="st4" d="M427,387.1c2.3-0.1,4.3,1.2,6.4,1.8c7.9,2.3,15.6,4.9,23.4,7.3c1.1,0.3,2.5-0.5,3.6,0.4c3.2,1.9,7,2.1,10.4,3.6
	c1.7,0.7,3.5,1.1,5.3,1.7c-0.2,0.1-0.3,0.2-0.3,0.4c-30.6,11.3-61.7,21.1-92.6,31.7c-33.2,11.4-66.5,22.3-99.7,33.4
	c-2.8,0.9-5.3,1-8.2,0.1c-15.1-4.7-30.4-9.1-45.6-13.7c-17.3-5.2-34.5-10.6-51.7-16c-23.9-7.5-47.8-15-71.7-22.5
	c-19-5.9-37.9-11.8-56.9-17.7c-2.1-0.7-4.1-1.5-6.2-2.3c0,0-0.1-0.3-0.1-0.3c1.9-0.6,3.8-1.2,5.7-1.9c5.2-1.9,10.4-3.7,15.8-5.2
	c2.5-1,5-2,7.5-2.9c10.7-3.7,21.5-7.4,32.3-11c4.4-1.5,8.6-3.7,13.4-4.1c1.2,2.7,0.2,5.4,0.1,8.1c-0.1,2.3-0.9,3.3-3.2,3.9
	c-4.2,1.1-8.6,1.9-12.2,4.8c-3.2,2.6-3.7,4.3-2,8.1c1,2.1,2.5,3.5,4.3,4.9c2.7,2.1,5.8,2.8,8.9,3.7c4.7,1.4,9.3,3,14,4.3
	c6.7,1.9,13.3,3.8,20.1,5.5c6.8,1.6,13.4,3.9,20.6,2.9c4-0.5,8.1-0.4,12.3,0.3c5.3,0.9,10.3,2.8,15.4,4.1c7,1.7,13.9,3.9,20.8,5.8
	c5.5,1.6,11,3.5,16.4,5.3c9.6,3.1,19.4,5.4,29,8.3c5.8,1.8,11.7,3.2,17.7,4.4c7.1,1.4,13.6-1.6,20.3-3c6-1.3,11.7-3.6,17.5-5.6
	c8.6-2.9,17.3-5.4,25.9-8.3c5.2-1.8,10.3-3.8,15.3-5.9c4.2-1.7,8.9-2.7,13.4-4.1c10.9-3.4,21.7-7.2,32.5-11.1c3-1.1,6.4-2.1,7.5-5.9
	l0,0c1-0.1,1.9-0.4,2.5-1.3c1.7-0.5,1.2-2,1.3-3.1c0.1-4.1,0.1-8.1,0.2-12.2C419.9,385.3,423.4,386.4,427,387.1z"/>
<path class="st5" d="M43.2,395.3c0,0,0.1,0.3,0.1,0.3c-1.6,1.5-0.7,3.5-0.8,5.3c-0.2,2.8,0,5.6,0,8.4c-1.1-4.3-0.4-8.7-0.4-13
	C42,395.7,42.6,395.4,43.2,395.3z"/>
<path class="st6" d="M43.2,409.9c0.7-0.2,1.4-0.2,2,0.5C44.5,410.5,43.8,410.6,43.2,409.9z"/>
<path class="st2" d="M475.8,402.4c0-0.2,0.1-0.3,0.3-0.4c0.2,0.1,0.4,0.1,0.5,0.2C476.4,402.3,476.1,402.3,475.8,402.4z"/>
<path class="st3" d="M292.3,477.5c-1.7,2.6-4.3,2.8-7,2.5C287.5,478.7,289.8,477.9,292.3,477.5z"/>
<path class="st3" d="M299.9,475.1c-0.7,1.9-2.3,1-3.5,1.1C297.4,475.2,298.5,474.8,299.9,475.1z"/>
<path class="st3" d="M296.1,476.2c-0.5,2.1-2.2,1.1-3.5,1.3C293.6,476.5,294.8,476.2,296.1,476.2z"/>
<path class="st3" d="M285.3,480c-0.4,2.1-2,1.1-3.2,1.3C282.9,480.3,284.1,480.2,285.3,480z"/>
<path class="st1" d="M466.7,418.1l-0.2,0c0,0-0.2,0-0.2,0C466.4,417.8,466.6,417.9,466.7,418.1z"/>
<path class="st7" d="M30.9,272.2c0.6-2.8,1.2-5.5,1.8-8.3c0.8-0.8,0.4-1.7,0.4-2.6c2.8,0.2,2.3-2.2,3-3.7c2.8-6.3,6.6-12,10.2-17.8
	c7-9.6,15.9-16.9,26.7-21.9c1.7-0.8,3.9-0.4,5.4-1.9c4.4,0,8.8-0.3,13,1.1c0.4,1.7,1.9,1.1,2.9,1.1c2.9-0.2,5.5,1,8.2,1.8
	c1.3,0.4,2.4,0.9,4.1,0.4c-2.7-2.4-4.6-5.1-6.4-7.8c-2.5-5.5-4.1-11.2-5-17.2c0-7,0.9-13.9,3.7-20.4c0.6-1.5,1.8-2.9,1.5-4.7
	l-0.1-0.1l0.2,0.1c2.2-2.2,3.7-4.8,4.9-7.7l0,0c3.4-3.3,6.8-6.7,10.2-10c0.8,0,1.4-0.3,1.3-1.2l-0.2-0.1l0.2,0.1
	c0.7,0,1.4-0.1,2.2-0.1c0.1,4.9,0.1,9.8,0.2,14.7c-13.1,11.4-17.7,37.1,0,50c0,1-0.1,2.1-0.1,3.1c0,11.5,0.3,23-0.3,34.4
	c-0.5-0.1-1.1-0.1-1.5-0.3c-5.7-4-11.6-5.5-18.6-3.5c-5.1,1.5-9.9,3.9-14.5,6.3c-2.8,1.5-4.9,5-6.4,8c-3.4,6.6-6.6,13.2-8.1,20.6
	c-1.7,8.1-1.3,16,0.8,23.8c0.6,2.3,0.9,5.2,3.2,6.9c0.1,0.7,0.3,1.4,1.1,1.5c0.2,1.6,1.3,2.8,2.2,4c7.2,9.8,17.5,11.4,28.6,11.1
	c0.6,0,1.2,0,1.8,0c0.8,1.9,2.5,1.2,3.9,1.4c0.4,1.4,1.6,1.2,2.6,1.2c1.7,0,3.3,0,5,0c0,6.1,0.1,12.1,0.1,18.2
	c-5.1,3-10.4,5.1-16.3,6.1c-6.1,1-11.9,0.1-17.8-0.8c-0.4-0.8-1.1-0.6-1.7-0.6c-0.7-0.2-1.4-0.5-2.2-0.7c-0.3-0.8-1-0.6-1.6-0.6
	c-0.6-0.2-1.3-0.5-1.9-0.7c0-0.4-0.3-0.5-0.6-0.4c-0.2,0-0.5-0.1-0.7-0.1c-0.1-0.2-0.3-0.2-0.5-0.1c-0.3-0.2-0.6-0.3-0.9-0.5
	c-0.4-0.8-1.1-0.7-1.8-0.7c-3-1.8-6.3-2.4-9.6-3.1c-0.4-0.7-1.1-0.6-1.8-0.6c-2.8-1.5-5.6-3-8.4-4.5c0-0.3-0.1-0.4-0.4-0.4
	c-0.2-0.1-0.5-0.2-0.7-0.3c-7.3-6.1-13.1-13.4-17-22.2c-1.7-3.9-3-8-4.6-12c0.1-2-0.4-4-0.7-5.9c-1.1-8.4-1.3-16.7,0.2-25.1
	C30.5,277.2,31.6,274.8,30.9,272.2z"/>
<path class="st8" d="M119.6,99.4c0.1-0.8,0.2-1.6,0.3-2.4c1.7-3.4,4.7-6.1,5.6-10c0.7-1.4,2.2-2.2,2.6-3.8c0.2-0.2,0.4-0.4,0.6-0.6
	c0.4,0,0.8-0.1,1.2-0.1c0.5,0.2,1,0.4,1.4,0.6c12.2,3.8,24.9,6.1,37.3,9.2c2.9,0.7,3,1.5,1.6,3.9c-2.8,4.7-5.4,9.5-7.3,14.6
	c-0.2,0-0.3,0.1-0.5,0.1c-1-0.9-2.2-1.1-3.5-1.4C145.8,106.2,132.7,102.8,119.6,99.4z"/>
<path class="st9" d="M30.9,272.2c0.8,2.6-0.4,5-0.8,7.4c-1.5,8.4-1.3,16.7-0.2,25.1c0.3,2,0.7,3.9,0.7,5.9c-2-2.1-1.8-5-2.4-7.6
	c-0.8-3.5,0.8-7.3-1.3-10.7c2.6-4.8-0.2-10.3,2.1-15.2C29.7,275.6,28.7,273.3,30.9,272.2z"/>
<path class="st8" d="M416.1,369.5c0.1,4.8,0.3,9.7,0.4,14.5c-0.1,4.1-0.1,8.1-0.2,12.2c0,1.2,0.5,2.6-1.3,3.1c-1,0-2.4-0.6-2.5,1.3
	c0,0,0,0-0.1,0c-0.9,0-2-0.3-2.8,0c-7.4,3.1-15.1,5.5-22.7,8.2c-5.4,1.9-10.7,3.7-16.1,5.6c-5.7,2-11.2,4.1-17,5.8
	c-3.8,1.1-7,3.4-10.9,4.3c-6,1.4-12,3.2-17.8,5.6c-6.6,2.7-13.6,4-20,7c-4,1.9-8.5,1.6-12.6,3.5c-2.1,1-4.7,2.7-7.4,1.2
	c0-9.1,0-18.2,0-27.4c11.5-4.1,22.9-8.4,34.4-12.4c28.7-9.8,57.5-19.5,86.3-29.2C409.3,371.6,412.7,370.6,416.1,369.5z M375.5,399.2
	C375.5,399.2,375.5,399.2,375.5,399.2c0.1-0.9,0.1-1.9,0.1-2.8c0-3.7-0.9-4.2-4.3-2.8c-7.6,3.1-15.2,6.1-23.1,8.5
	c-1.4,0.4-2.6,1.4-2.3,2.9c0.6,2.9,0.9,5.8,0.9,8.8c0,0.8,0.2,1.5,1.3,1.2c1.4-0.4,2.9-0.6,4.2-1.1c6.7-2.7,13.5-4.9,20.3-7.1
	c1.9-0.6,2.9-1.6,2.8-3.6C375.5,401.7,375.5,400.4,375.5,399.2z"/>
<path class="st0" d="M285.3,441.7c2.8,1.5,5.3-0.2,7.4-1.2c4.1-1.9,8.6-1.6,12.6-3.5c6.4-3,13.4-4.3,20-7c5.7-2.4,11.7-4.1,17.8-5.6
	c3.9-0.9,7.1-3.2,10.9-4.3c5.7-1.7,11.3-3.9,17-5.8c5.4-1.9,10.7-3.7,16.1-5.6c7.6-2.7,15.3-5.1,22.7-8.2c0.8-0.3,1.9,0,2.8,0
	c-1,3.8-4.4,4.9-7.5,5.9c-10.8,3.9-21.6,7.7-32.5,11.1c-4.5,1.4-9.2,2.3-13.4,4.1c-5.1,2.1-10.2,4.1-15.3,5.9
	c-8.6,2.9-17.3,5.4-25.9,8.3c-5.8,2-11.5,4.3-17.5,5.6c-6.7,1.5-13.3,4.5-20.3,3c-5.9-1.2-11.8-2.6-17.7-4.4
	c-9.6-2.9-19.4-5.2-29-8.3c-5.5-1.8-10.9-3.7-16.4-5.3c-6.9-2-13.8-4.2-20.8-5.8c-5.2-1.2-10.2-3.1-15.4-4.1
	c-4.1-0.7-8.3-0.9-12.3-0.3c-7.2,0.9-13.8-1.3-20.6-2.9c-6.7-1.6-13.4-3.5-20.1-5.5c-4.7-1.4-9.4-2.9-14-4.3
	c-3.1-0.9-6.2-1.7-8.9-3.7c-1.8-1.4-3.3-2.7-4.3-4.9c-1.7-3.8-1.3-5.5,2-8.1c3.6-2.9,8-3.7,12.2-4.8c2.3-0.6,3-1.6,3.2-3.9
	c0.1-2.7,1.1-5.4-0.1-8.1c0.4-0.3,0.7-0.6,1.1-0.9c0,8.5-0.1,17.1-0.1,25.6c0,4.6,1.5,6.2,6.2,6.8c0.6,0.1,1.3,0,1.9,0.2
	c8.3,2.8,16.7,5.6,25,8.3c3.2,1.1,6.6,1.8,9.9,2.7c0.1,0.2,0.2,0.3,0.2,0.5c1,1.2,2.3,0.7,3.4,0.3c2-0.7,4.1-1.4,6.1-2.2
	c1,0,2,0,3.1-0.5c2.2-1.2,4.6-0.9,6.8-0.3c7.1,1.9,14.2,4.1,21.3,6.1c4.9,1.4,9.8,2.8,14.7,4.3c6.2,1.9,12.3,3.9,18.4,5.7
	c9.1,2.7,18.2,5.3,27.2,8.1C270.5,437.4,277.7,440.2,285.3,441.7z"/>
<path class="st0" d="M412.6,400.6c0.1-1.8,1.4-1.3,2.5-1.3C414.5,400.2,413.6,400.5,412.6,400.6z"/>
<path class="st8" d="M296.4,75.6c0.1,1.5,0.3,2.9,0.3,4.4c0.1,18.1,0.1,36.2,0.1,54.3c0,15.4-0.1,30.9-0.1,46.3
	c0,1.3,0.4,2.8-0.9,3.8c-2.7-0.7-5.3-1.4-8-2c-0.2-1.6-1.5-1.6-2.7-1.9c-2.3-0.7-5,0.2-7.1-1.6c0.3-2,0.8-3.9,0.8-5.9
	c0.1-18.3,0-36.6,0-54.9c0-1,0.3-2.2-1.2-2.6c-0.4-1.4,0.3-3-0.5-4.3c-3.8-6.8-10.1-10.6-17.8-8.2c-0.9,0.3-1.8,0.4-2.8,0.6
	c-0.6-2.1-1.1-4.1-1.7-6.2c-0.3-1.2-0.5-2.5-1-3.6c-1.2-2.7-2.2-5.7-6.1-5.7c-1.8-0.1-3.1,1.4-4.9,1.5c-3.2,0.1-6.3,2.3-9.6,0.5
	c3.1-1.4,6.5-2.1,9.9-4.9c-6.4-0.5-11.7-0.2-17.2,3.4c2.7-0.2,4.5,0.3,6.1,1.5c-1.4,1.1-2.8,0.2-4.2,0.1c-1.3-0.1-3-0.5-2.7,1.8
	c-1.9,1.5-4,2.7-6.4,3.1c-2.4,0.4-3,1.7-3,3.9c0,4.6-0.1,9.2-0.1,13.8c-1.9,0.5-3.8,1-5.7,1.6c-3.9,1.2-7.9,2.2-10.7,5.4
	c-1.4,1.2-2.9,2.5-4.3,3.7c-3.6,1.7-5.2,4.8-6.1,8.4c-2.8,3.3-3.3,7.5-3.2,11.5c0.2,22.7-1,45.4-0.7,68.1c0,0.9,0,1.9,0,2.8
	c0,0.7-0.2,1.2-0.8,1.6c-2.5-0.5-4.8,0.1-7,1c-3.2,1.2-6.4,1.9-9.8,2.3c-0.6,0-1.3-0.1-1.9-0.1c-0.7,0.1-1.3,0-1.9-0.4
	c0-0.7-0.1-1.5-0.1-2.2c0-35.1,0-70.3,0.1-105.4c3.6-3.8,5.7-8.5,7.6-13.2c1.5-3.7,3.9-5.4,7.8-6.3c25.3-6,50.6-12.3,76-18.5
	c10.6-2.6,21.3-4.9,31.9-7.4c2.9,2.1,5,5,7.3,7.6C294.8,74,295.6,74.7,296.4,75.6z"/>
<path class="st8" d="M414.3,214.5c2.5-0.4,1.8,1.5,1.8,2.7c0,12,0,24,0,36c0,26.7,0,53.5,0.1,80.2c0,1,0.1,2.1,0.1,3.1
	c-0.1,9.8-0.1,19.6-0.2,29.3c0,0.9-0.1,1.9-0.1,2.8c-4.2,0.6-8.1,2.1-12.1,3.4c-2.7,0.9-3.6,0.2-3.5-2.7c0.3-8.6,0.2-17.2,0.5-25.8
	c0.3-12.9,0-25.8-0.2-38.8c-0.5-28.8-0.1-57.6-0.1-86.4C405.1,217.2,409.9,216.5,414.3,214.5z"/>
<path class="st2" d="M133,81.8c29.3-7.4,58.6-14.9,87.9-22.3c3.7-0.9,7.5-1.5,11-2.8c7.9-3,15.1,0.4,22.5,2c9,1.9,17.9,4,26.9,6
	c0.9,0.2,1.9,0.1,2.8,0.2c-1.9,1.5-4.2,1.1-6.3,1.6c-21.3,5.1-42.6,10.1-63.8,15.2c-12.3,3-24.5,6.1-36.7,9.2
	c-2.6,0.6-4.9,1.9-7.9,1.1c-11.5-3.1-23-5.8-34.6-8.7C133.9,82.9,133,83,133,81.8z"/>
<path class="st2" d="M400.5,218.4c0,28.8-0.4,57.6,0.1,86.4c0.2,12.9,0.5,25.9,0.2,38.8c-0.2,8.6-0.1,17.2-0.5,25.8
	c-0.1,2.8,0.8,3.5,3.5,2.7c4-1.3,7.9-2.8,12.1-3.4c0,0.3,0.1,0.5,0.1,0.8c-3.4,1.1-6.8,2.2-10.2,3.3c-28.8,9.7-57.6,19.4-86.3,29.2
	c-11.5,3.9-22.9,8.3-34.4,12.4c-0.6-0.2-1.3-0.4-1.9-0.6c0.1-1.6,1.6-1.5,2.6-1.9c31.8-11,63.6-21.9,95.4-32.8
	c6.4-2.2,6.4-2.2,6.4-9.1c2.7-0.2,4.6,1.9,7.1,2.5c4.6,1.1,4.5,1.2,4.5-3.4c0-39.6,0-79.1-0.1-118.7c0-10.4-0.1-20.8-0.1-31.2
	c0.4-0.2,0.8-0.5,1.2-0.7L400.5,218.4z"/>
<path class="st5" d="M133,81.8c0,1.2,0.9,1.2,1.7,1.4c11.5,2.9,23.1,5.6,34.6,8.7c3,0.8,5.3-0.5,7.9-1.1c12.3-3,24.5-6.2,36.7-9.2
	c21.3-5.1,42.6-10.1,63.8-15.2c2.1-0.5,4.4-0.1,6.3-1.6c1,0,2-0.2,2.6,0.8c-10.6,2.5-21.3,4.8-31.9,7.4c-25.3,6.1-50.6,12.4-76,18.5
	c-3.8,0.9-6.2,2.6-7.8,6.3c-2,4.7-4.1,9.4-7.6,13.2c-0.2,0-0.4-0.1-0.6-0.1c1.9-5.1,4.5-9.9,7.3-14.6c1.4-2.3,1.3-3.1-1.6-3.9
	c-12.4-3.1-25-5.4-37.3-9.2c-0.5-0.2-1-0.4-1.4-0.6C130.6,81.4,131.8,81.8,133,81.8z"/>
<path class="st10" d="M161.9,413c-3.3-0.9-6.6-1.7-9.9-2.7c-8.4-2.7-16.7-5.6-25-8.3c-0.6-0.2-1.2-0.2-1.9-0.2
	c-4.7-0.6-6.2-2.2-6.2-6.8c0-8.5,0.1-17.1,0.1-25.6c0-5.5-0.1-11-0.1-16.5c0-6.1-0.1-12.1-0.1-18.2c1.1-0.8,0.8-2.1,0.8-3.2
	c0-16.1,0-32.2,0-48.2c0-1.1,0.4-2.4-1.1-3c-0.7-0.2-1.1-0.7-1.3-1.4c1.4,0,1.7-0.8,1.7-2c0-5.4,0-10.8,0-16.2
	c0-1.6,0.1-3.3,0.1-4.9c0.1-0.7,0.1-1.4-0.4-2c0.6-11.5,0.2-23,0.3-34.4c0-1,0.1-2.1,0.1-3.1c0.1-8.1,0.1-16.2-0.6-24.2
	c1.2-4.9,0.8-9.9,0.6-14.9c0-3.6,0-7.2,0.1-10.8c-0.1-4.9-0.1-9.8-0.2-14.7c0.3-1.3,0.4-2.6,0.1-3.9c0-2,0-4.1,0-6.1
	c0.1-0.2,0.1-0.3,0-0.5c0-0.7,0-1.5,0-2.2c0-0.4,0-0.8,0-1.3c0-1,0-2.1,0-3.1c0.1-10.3,0.2-20.5,0.3-30.8c0-1.3-0.2-2.7,0.3-4
	c13.1,3.4,26.2,6.8,39.3,10.2c1.2,0.3,2.5,0.5,3.4,1.4c0,0.5-0.1,1-0.1,1.6c0,35.3-0.1,70.5-0.1,105.8c-3.6,0.2-6.8-1.4-10.1-2.2
	c-5.5-1.3-10.9-2.8-16.6-4.3c0.3,1.1,0.9,1.2,1.3,1.3c6.1,1.7,12.1,3.4,18.2,5c3.2,0.8,6.2,2.8,9.7,1.5c0,0.2,0,0.3,0,0.5
	c-4.2,8-3.8,16.3-2,24.8c-1,2.1-0.6,4.2-0.6,6.4c0,2.9-0.1,5.9-0.1,8.8C162,311.1,162,362.1,161.9,413z M150,320.1
	c0-9.4,0.1-18.9,0-28.3c0-8.6,1.1-7.3-7.3-9.9c-5.1-1.6-10.1-3.3-15.5-3.5c-1.5,0.5-1.2,1.8-1.3,2.9c0,2.5,0,5.1,0,7.6
	c0,12,0,24,0,36c0,1.2-0.5,2.6,1.3,3.1c7,1.8,14,3.7,21,5.5c1.3,0.3,2-0.2,1.9-1.6C150.1,327.9,150.1,324,150,320.1z M147.9,130.1
	c0.2,1.9,0.2,3.9,2.7,4c1.7,0,2.4-1.4,2.4-2.8c0-1.8-1-3.5-3-3.9C148,127.2,148.1,128.9,147.9,130.1z M121.6,208.5
	c3.9,1.4,7.7,2.8,11.8,3.1C129.7,209.9,125.7,209.1,121.6,208.5z"/>
<path class="st4" d="M119,255.7c0,1.6-0.1,3.3-0.1,4.9c-0.4,0.4-1,0.7-1,1.1c-0.9,5.7-1.8,11.5-2.6,17.2c-10.6,11.3-11.6,26-2.5,38
	c-1.2,0-1.7,1-1.7,1.9c0,2.3-0.7,4.5-0.7,6.8c0,2.4,0.1,5.3-3,6.5c-0.6,0-1.2,0-1.8,0c-0.7-1.4-2.3-1.7-3.3-2.7
	c-4.5-4.7-8.1-10-9.5-16.4c-1-4.7-4.2-6.8-8.1-8.6c-3.4-1.6-7-2.7-10-5.1c-1.1-0.9-1.4-3.1-3.5-2.7c-0.5-11.1,0.6-13.4,5.5-23.3
	c2.1-4.2,4.5-8.1,7.1-12c4-6,9.9-8.9,16.7-10.1C107.1,250,113.4,251.9,119,255.7z"/>
<path class="st11" d="M118.4,191.9c0.7,8.1,0.8,16.1,0.6,24.2c-17.7-12.9-13.1-38.6,0-50c0,3.6,0,7.2-0.1,10.8
	c-2.4,4.1-2.6,8.5-2.2,13C116.9,190.8,117.7,191.4,118.4,191.9z M116.5,179.7c-2.8,2.6-3,6.3-3.7,9.8c-0.1,0.8-0.3,1.9,0.8,2.1
	c1.2,0.2,1.5-0.8,1.7-1.8c0.4-3.3,0.9-6.6,1.3-9.9c0.1-0.2,0.2-0.5,0.3-0.7C116.7,179.3,116.6,179.5,116.5,179.7z"/>
<path class="st2" d="M119,255.7c-5.7-3.9-11.9-5.7-18.7-4.5c-6.8,1.2-12.7,4.1-16.7,10.1c-2.6,3.9-5,7.8-7.1,12
	c-4.9,9.9-5.9,12.3-5.5,23.3c-1.5,3.9-0.2,7.6,0.4,11.4c-0.2,2.7,1.6,4.9,2,7.4c-2.4-1.7-2.6-4.5-3.2-6.9
	c-2.1-7.8-2.5-15.7-0.8-23.8c1.6-7.4,4.7-14,8.1-20.6c1.6-3,3.6-6.5,6.4-8c4.6-2.5,9.3-4.8,14.5-6.3c7-2,12.9-0.5,18.6,3.5
	c0.4,0.3,1,0.2,1.5,0.3C119.1,254.3,119.1,255,119,255.7z"/>
<path class="st0" d="M107.3,332.1c3.1-1.2,3-4.1,3-6.5c0-2.3,0.7-4.5,0.7-6.8c0-0.9,0.5-1.9,1.7-1.9c2.1,0.9,3.9,2.6,6.3,2.8
	c0,2.6,0,5.2-0.1,7.9c-0.1,5.5-0.3,5.7-5.9,5.8c-0.6,0-1.3,0.1-1.9,0.2C109.8,333.3,108.1,334,107.3,332.1z"/>
<path class="st8" d="M111.2,333.5c0.6-0.1,1.3-0.1,1.9-0.2c5.6-0.1,5.7-0.2,5.9-5.8c0.1-2.6,0-5.2,0.1-7.9c-0.1-3.5-0.3-7-0.4-10.5
	c1.1-7,0.2-14.1,0.4-21.1c0-1,0.4-2.1-0.6-3c-1.3,0.8-1.6,1.9-2,3.3c-1.4,5.6-2.9,11.1-4.4,16.6c-1-1.4-1.2-3.1-1.5-4.8
	c-1.6-8,0.4-13.1,7.1-17.6c1-0.7,1.1-1.4,0.9-2.4c1.5,0.5,1.1,1.9,1.1,3c0,16.1,0.1,32.2,0,48.2c0,1.1,0.3,2.4-0.8,3.2
	c-1.7,0-3.3,0-5,0C112.8,334.7,111.6,334.9,111.2,333.5z"/>
<path class="st10" d="M102.2,329.4c1.1,1,2.6,1.3,3.3,2.7c-11.1,0.3-21.4-1.3-28.6-11.1c-0.9-1.3-2-2.4-2.2-4c1.2,0.1,1.8,1,2.5,1.7
	c3,3.5,6.9,4.6,11.2,4.5c0.4,0.1,0.8,0.2,1.2,0.3c0,0.9,0.7,0.9,1.3,0.8c2,0,3.7,0.9,5.5,1.9C98.3,327.3,99.5,329.7,102.2,329.4z"/>
<path class="st8" d="M88.4,323.2c-4.4,0-8.3-1-11.2-4.5c-0.6-0.8-1.3-1.7-2.5-1.7c-0.9-0.1-1-0.8-1.1-1.5c-0.5-2.5-2.2-4.7-2-7.4
	c0.1-0.3,0.1-0.7,0.6-0.5c0.1,0,0.1,0.2,0.1,0.3c0.6,1.7,1.3,3.4,3.1,4.1c2,0.8,3.6,2.2,4.7,3.9c1.9,2.9,4.6,4.7,7.6,6.3
	C88.2,322.3,88.5,322.6,88.4,323.2z"/>
<path class="st3" d="M33.1,261.3c0.8-4.7,3.8-8.4,5.7-12.6c1.2-2.5,2.8-4.8,4.4-7c0.7-1,1.5-2.1,3-1.9c-3.6,5.8-7.4,11.5-10.2,17.8
	C35.4,259.1,35.8,261.5,33.1,261.3z"/>
<path class="st6" d="M95.1,195.5c-1.1-0.1-1.3-0.9-1.3-1.8c-0.2-8.1,1.9-15.7,5.4-22.9c0.1-0.2,0.7-0.2,1.1-0.4
	c0.3,1.8-0.8,3.2-1.5,4.7C96,181.7,95.1,188.5,95.1,195.5z"/>
<path class="st6" d="M105.3,162.8c0-0.5-0.2-1.2,0-1.5c2.7-3.3,5.2-6.9,9.3-8.7c0.3,0.1,0.5,0.1,0.8,0.2
	C112,156.1,108.6,159.4,105.3,162.8z"/>
<path class="st6" d="M100.3,170.5c0.1-3.6,1.7-6.1,4.9-7.7C104,165.6,102.4,168.2,100.3,170.5z"/>
<path class="st12" d="M116.7,151.5c-0.4-2,0-3.5,2.3-4c0.3,1.3,0.2,2.6-0.1,3.9C118.2,151.5,117.5,151.5,116.7,151.5z"/>
<path class="st6" d="M74.7,354.3c-0.4-0.7-2,1.8-1.8-0.7C73.6,353.6,74.3,353.5,74.7,354.3z"/>
<path class="st12" d="M115.4,152.7c-0.3-0.1-0.5-0.1-0.8-0.2c0.3-1.2,1.1-1.3,2.1-1C116.8,152.4,116.2,152.7,115.4,152.7z"/>
<path class="st6" d="M76.1,354.9c-0.1,0.4-0.1,1.1-0.8,0.8c-0.4-0.2,0-0.6,0.3-0.9C75.8,354.7,75.9,354.8,76.1,354.9z"/>
<path class="st6" d="M84.8,358.1c-0.6,0-1.3,0-1.7-0.6C83.7,357.5,84.4,357.3,84.8,358.1z"/>
<path class="st6" d="M63.3,350.5c-0.6,0-1.3,0-1.8-0.6C62.2,349.9,62.9,349.8,63.3,350.5z"/>
<path class="st6" d="M80.9,356.8c-0.6-0.1-1.2-0.1-1.6-0.6C79.9,356.2,80.6,356,80.9,356.8z"/>
<path class="st6" d="M77.4,355.5c-0.2-0.1-0.4-0.3-0.6-0.4C77.1,355,77.3,355.1,77.4,355.5z"/>
<path class="st6" d="M53.1,345.4c-0.2-0.1-0.3-0.2-0.4-0.4C53,345,53.2,345.1,53.1,345.4z"/>
<path class="st13" d="M119,134.3c0,1,0,2.1,0,3.1C117.2,136.4,117.3,135.3,119,134.3z"/>
<path class="st2" d="M162.1,218.3c0-35.3,0.1-70.5,0.1-105.8c0-0.5,0.1-1,0.1-1.6c0.2-0.1,0.3-0.1,0.5-0.1c0.2,0,0.4,0.1,0.6,0.1
	c0,35.1,0,70.3-0.1,105.4c0,0.7,0.1,1.5,0.1,2.2C163,218.5,162.5,218.4,162.1,218.3z"/>
<path class="st10" d="M283.4,413.7c0.6,0.2,1.3,0.4,1.9,0.6c0,9.1,0,18.2,0,27.4c-7.6-1.5-14.8-4.4-22.2-6.6
	c-9.1-2.8-18.2-5.4-27.2-8.1c-6.2-1.9-12.3-3.9-18.4-5.7c-4.9-1.5-9.8-2.8-14.7-4.3c-7.1-2.1-14.1-4.2-21.3-6.1
	c-2.2-0.6-4.6-0.9-6.8,0.3c-1,0.5-2,0.5-3.1,0.5c0.2-1.2,0.5-2.5,0.5-3.7c0.2-7.8,2.8-15,6-22c0.6-1.3,1.4-2,3.2-1.5
	c21.4,6.3,42.8,12.6,64.3,18.7C258.2,406.9,270.7,410.9,283.4,413.7z"/>
<path class="st4" d="M375.5,399.2c0,1.3,0,2.5,0,3.8c0.1,2-0.9,3-2.8,3.6c-6.8,2.2-13.7,4.4-20.3,7.1c-1.3,0.6-2.8,0.7-4.2,1.1
	c-1.1,0.3-1.3-0.4-1.3-1.2c0-2.9-0.3-5.9-0.9-8.8c-0.3-1.6,0.8-2.5,2.3-2.9c7.8-2.4,15.5-5.4,23.1-8.5c3.5-1.4,4.3-0.8,4.3,2.8
	C375.6,397.3,375.6,398.2,375.5,399.2C375.5,399.2,375.5,399.2,375.5,399.2z M353.1,411.2L353.1,411.2c0.7,0.1,1.3,0,1.6-0.8
	c0.5-0.1,1-0.2,1.5-0.2c0.2-0.1,0.4-0.2,0.6-0.3c1.9-0.7,3.8-1.4,5.8-2.1c3.6,0.2,3.2-2.3,3.1-4.6c0-0.6,0.3-1.4-0.4-1.6
	c-0.9-0.2-1,0.8-1.5,1.3l0,0c-1.6,0.3-3.4,0.2-4.4,1.9l-0.1,0c-0.8-0.3-1.6-1-1.9,0.5l-0.1,0.1c-0.6,0-1.3-0.1-1.7,0.5
	c-0.1,0-0.2,0.1-0.2,0.2c-0.1,0.2-0.3,0.3-0.4,0.5l-0.1,0.2c-0.6,0.2-0.9,1.2-1.8,0.6c0-0.5-0.1-1.1-0.7-1.3
	c-0.5-0.2-0.8,0.2-0.8,0.7c0.2,1.7-0.7,3.5,0.8,4.9C352.6,411.5,352.8,411.4,353.1,411.2z"/>
<path class="st8" d="M283.4,413.7c-12.7-2.9-25.2-6.9-37.7-10.5c-21.4-6.1-42.9-12.4-64.3-18.7c-1.8-0.5-2.6,0.2-3.2,1.5
	c-3.2,7-5.8,14.1-6,22c0,1.2-0.3,2.5-0.5,3.7c-2,0.7-4.1,1.4-6.1,2.2c-1.2,0.4-2.4,0.8-3.4-0.3c2-0.7,1.1-2.3,1.1-3.5
	c0.1-34.5,0.1-69,0.1-103.5c0-16.8,0-33.7-0.1-50.5c0-1.7,0.2-3.4-1.2-4.7c0-2.1-0.5-4.3,0.6-6.4c0,0,0,0,0,0
	c0.5,1.7,1.1,2.9,2.7,0.8c0.3,0,0.6,0,0.9,0c0.5,1.3,1.6,1.1,2.7,1c0.4,0,0.8,0,1.3,0.1c1.2,1.1,2.6,0.5,3.9,0.7
	c1.7,0.3,3.3,0.5,3.5,2.8c0.6,6.5,1,13.1,2.9,19.5c1.1,3.7,2.9,7.2,2.8,11.2c-0.4,18.4,0.7,36.8,0.7,55.2c0,3.4,0,6.7,0,10.1
	c1.7,0.7,3.5,1.3,5.2,2c-0.8,2.4,0.8,4.3,2.4,4.2c2.9-0.2,6.2,3.1,8.7-0.7c2.5,0.5,5,1.1,7.5,1.6c6.2,2.1,12.6,3.8,19,5.3
	c11.9,3.8,24,7,36,10.1c6.3,2.2,12.8,3.8,19.3,5.4c1.1,0.3,2.4,0.1,2.8,1.6c0,1.5,0,2.9,0,4.4c-1.7,1.1-3.5,0.5-5.2,0
	c-15.1-4.3-30.1-8.6-45.2-12.9c-14.7-4.1-29.2-8.7-44.2-11.7c-5.3-1.1-7.2,1-6.6,6.5c0.2,1.6,0.8,2,2.3,1.5c2.7-0.9,5.4-1.9,8-2.8
	c-0.1,0.4-0.2,0.7-0.3,1.1c-2.6,1.6-5.5,2.5-8.4,3.4c-2.7,0.9-1.5,3.1-1.7,4.8c-0.2,1.4-0.1,2.8,1.7,3.1c3.9,0.7,7.6,2.5,11.6,2.7
	c0.8,0.3,1.5,0.7,2.3,0.9c13.7,3.7,27.4,7.4,41.1,11c12.4,3.3,24.8,6.4,36.9,10.7c3.6,1.3,6.5,0.7,9.6-0.5c4.5-1.7,8.9-3.5,13.4-5
	c9.6-3.3,19.4-6.4,29-9.8c13.4-4.7,27.1-8.7,40-14.7c1.4-0.7,3.1,1.2,4-0.9c0.5-0.1,1.1-0.1,1.3-0.7l0,0.1c2.7-0.8,5.5-1.7,8.2-2.5
	c1.8,0.2,1,2.4,2.4,3c-0.2,0.7-1.3,0.7-1.3,1.7c1.1,0.2,2.2,0.5,3.2,0.7c0.1,7,0,6.9-6.4,9.1c-31.8,10.9-63.6,21.9-95.4,32.8
	C285,412.2,283.5,412.1,283.4,413.7z M278.4,406c0.5-2.9-1.8-3.1-3.7-3.7c-24.5-6.9-49-13.7-73.5-20.6c-4.8-1.3-9.5-2.7-14.3-3.9
	c-1-0.3-2.5-0.8-2.8,0.3c-0.4,1.3-0.5,3,1,4c1,0.7,2.3,1.1,3.5,1.4c13.7,3.8,27.4,7.6,41,11.4c15.3,4.3,30.6,8.7,45.8,13.1
	C277.4,408.6,278.8,408.7,278.4,406z M169.1,320.3c0.2,0.4-0.8,2.4,1.3,1.8c3.1-0.9,6.2-1.9,8.9-3.9c1.6-1.2,1.4-3,0.6-4.6
	c-1-2-2.3-0.5-3.5-0.1c-1.9,0.6-3.6,1.7-5.4,2.6C169.5,317,168.7,318.1,169.1,320.3z M169.1,328.7c-0.4,2.4,0.6,3,2.9,2.3
	c1.6-0.5,3.3-0.8,4.9-1.3c2.7-0.8,2-2.8,1.6-4.6c-0.6-2.3-2-0.7-3-0.6c-1.3,0.1-2.6,0.7-4,1C169.7,326,168.8,326.9,169.1,328.7z
	 M169.6,307.3c-0.4,2.3,0.5,2.9,2.6,2.1c1.8-0.7,3.6-1.2,5.4-1.8c2-0.7,1.4-2.3,1.1-3.7c-0.4-1.8-1.6-1.2-2.7-0.8
	c-1.3,0.4-2.6,0.9-3.9,1.1C170.2,304.4,169.2,305.3,169.6,307.3z M178,294.9c0.3-2.3-0.7-3.2-2.9-2.4c-1.3,0.5-2.6,0.9-3.7,1.6
	c-1.6,1-2,2.9-1.4,4.4c0.6,1.5,2,0.1,3,0c1-0.1,2-0.6,3-0.8C177.5,297.4,178.3,296.5,178,294.9z"/>
<path class="st2" d="M162.1,251.3c1.4,1.3,1.1,3.1,1.2,4.7c0,16.8,0.1,33.7,0.1,50.5c0,34.5,0,69-0.1,103.5c0,1.2,0.9,2.8-1.1,3.5
	c-0.1-0.2-0.2-0.3-0.2-0.5c0-51,0.1-101.9,0.1-152.9C162,257.2,162.1,254.2,162.1,251.3z"/>
<path class="st7" d="M295.9,184.4c1.3-1.1,0.9-2.5,0.9-3.8c0.1-15.4,0.1-30.9,0.1-46.3c0-0.1,0.1-0.3,0.1-0.4
	c1.1,2.4,3.5,1.2,5.2,1.7c4.2,1.2,8.2,3.6,12.8,3.4c3.7,1.8,7.9,1.8,11.6,3.6c2.5,1.2,5.2,2.1,7.4,3.9c2.4,2.4,4.7,4.9,7.1,7.3
	c0.6,0.5,0.7,1.5,1.7,1.6l0,0c0.8,2.4,2,4.5,3.8,6.3l0,0c0.3,2.2,1.2,4.1,2.5,5.9c-0.1,0.1-0.1,0.3,0.1,0.3c0.4,2.7,1,5.3,2.5,7.6
	l0,0c0.8,6.7,1.7,13.4,1.3,20.1c-0.1,0.1-0.1,0.3,0,0.4c-0.3,1.1-0.6,2.3-0.9,3.4c-0.8,0-1.5,0-2.3,0c-9.9-2.6-19.8-5.1-29.7-7.7
	c-4.5-1.2-9-2.2-13.5-3.4C303,187.4,298.9,187,295.9,184.4z"/>
<path class="st2" d="M396,210.8c1.7,0.2,3.4,0.5,5.1,0.7c3.5,0.6,7,1.3,10.4,1.8c1.1,0.2,2,0.4,2.8,1.2c-4.4,2.1-9.2,2.7-13.8,3.9
	c0,0-0.2-0.2-0.2-0.2c-0.2-0.3-0.4-0.6-0.6-0.9c0.7-0.5,1.9-0.9,1.8-2c-0.2-1.5-1.7-1.4-2.8-1.6c-32.9-8.1-65.8-16.2-98.7-24.3
	c-4.9-1.2-9.9-2.2-14.8-3.2c-1.3-0.3-2.7-0.6-3.3,1.3c-0.6,2.1,1.2,1.8,2.2,2.2c1.6,0.6,3.2,1,4.9,1.4c9.4,2.4,18.7,4.7,28.1,7.1
	c0.8,0.8,1.6,1.7,2.3,2.5c-0.2,0-0.4,0.1-0.6,0.1c-10.8-2.7-21.7-4.6-32.4-7.8c-0.8-0.2-1.5-0.8-2.2,0.2c-5.4,2.3-11.1,3.2-16.8,4.3
	c-1.2,0.2-2.3,0.2-2.5,1.7c-0.5-1.4-1.7-1.7-2.9-2c-4.7-1.2-9.4-2.4-14-3.7c0.5-0.5,0.9-1.1,1.4-1.6c0.8,0,1.7-0.1,2.5-0.1
	c2.1,1.4,4,0.3,5.9-0.5c0.9-0.1,1.6-0.3,1.7-1.4c1.4-0.2,3.3,0.8,4.1-1.3c0.5-1.4-0.9-1.7-1.5-2.3c0.4-0.7,1.1-1,1.7-1.4
	c4.6,1.8,9.6,1.7,14.3,2.9c0.9,0.2,2-0.1,2.4-1.1c0.4-1.3-0.9-1.5-1.6-1.9c-1.3-0.6-2.8-1-4.1-1.5c-1.4-0.5-3.3-0.3-3.8-2.2
	c1.4-0.2,2.6,0.5,3.9,0.8c3.7,1.1,7.4,2.8,11.4,1.8c0.1,0.6,0.3,0.9,0.9,1.1c3.1,0.7,6.3,1.5,9.4,2.3c17.8,4.5,35.5,8.9,53.3,13.4
	c10.5,2.6,21,5.2,31.5,7.8c4.3,1,8.4,2.6,12.9,2.5C394.7,211.5,395.3,211.5,396,210.8z M274.8,189.6c-1.7,0-3.2-1.6-5.3-0.4
	C271.5,190.2,273.2,189.7,274.8,189.6z"/>
<path class="st12" d="M335.3,146.2c2.6,1.6,4.7,3.7,6.3,6.4c-0.2,0.4-0.4,0.7-0.6,1.1c-2.4-2.4-4.7-4.9-7.1-7.3
	C334.4,146.3,334.9,146.3,335.3,146.2z"/>
<path class="st11" d="M270.8,181c0.6,1.9,2.5,1.7,3.8,2.2c1.4,0.5,2.8,0.9,4.1,1.5c0.7,0.3,2,0.6,1.6,1.9c-0.3,1.1-1.5,1.4-2.4,1.1
	c-4.7-1.2-9.7-1.1-14.3-2.9c0-0.4,0-0.9,0-1.3c2.8-3.6,1.6-7.7-2.6-8.6c-1.6-0.3-3.3-0.5-4.9-0.8c0-1.3,0.1-2.5,0.1-3.8
	c0.6-14-0.9-28,1.1-42c1.2-8.4,0.3-16.7-0.7-25.1c0.9-0.2,1.9-0.3,2.8-0.6c7.6-2.3,14,1.5,17.8,8.2c0.8,1.4,0.1,2.9,0.5,4.3
	c0,20.7-0.1,41.4-0.1,62c0,0.4,0.1,0.8,0.2,1.2c-2.3,1.2-4.6-0.1-6.9,0.1c-0.8,0-1.8-0.4-2,0.8C268.8,180.8,269.9,180.9,270.8,181z"
	/>
<path class="st4" d="M256.8,103.4c1,8.3,1.9,16.7,0.7,25.1c-2,14-0.6,28-1.1,42c-0.1,1.3-0.1,2.5-0.1,3.8c-0.6,0.4-1.4,0.9-1.1,1.7
	c1.1,3.2,0.4,6.4,0.6,9.6c-0.8,1.1-2.1,1-3.2,1.4c-1,0-2,0.1-3.1,0c-1.3-0.1-1.7,0.7-1.5,1.7c0.2,1.1-1,2.9,1.3,3.1
	c-0.5,0.5-0.9,1.1-1.4,1.6c-0.6,1.3-0.4,2.6,0.2,3.9c-0.1,0.2-0.2,0.5-0.3,0.7c-1.3-0.2-2.5-0.4-3.8-0.6c-4.3-0.5-4.5-3.3-4.5-6.9
	c0.1-30.1,0-60.2,0-90.3c0-1.6-0.2-3.2,0.7-4.6c0.2-0.1,0.4-0.2,0.5-0.3c1.3-0.5,2.6-0.7,3.8-1.4c2.8-1.6,3.2,0,3.2,2.3
	c0,2.9,0.1,5.9,0.2,8.8c0,6.3-0.1,12.6-0.1,19c0,0.8-0.3,2,0.8,2.1c2.7,0.2,4.1,2.4,6.2,4.5c0.8-9.4,0.4-18-0.8-26.7
	c0.3-0.9,0.1-1.8-0.2-2.7c0.6-1.3,1.1-2.7,1-4.2C255.7,99.2,256.2,101.3,256.8,103.4z"/>
<path class="st11" d="M199.3,119.7c2.9-3.2,6.9-4.2,10.7-5.4c1.9-0.6,3.8-1.1,5.7-1.6c3.2-0.4,6.2-2.3,9.6-1.9
	c0.5,1.2,0.4,2.5,0.4,3.7c0,19.1,0,38.2,0,57.3c0,1.2,0.1,2.3-0.5,3.4c-1.2,0.1-2.2-0.5-3.3-0.8c-3.4-0.8-6.7-0.7-9.5,1.8
	c-1.6,0.1-3.1,0.8-4.9,0.7c-2.3-0.2-2.3,0.5-2.3-2c0.1-8.9,0.2-17.9,0.2-26.8C206.1,138.2,206.9,128,199.3,119.7z"/>
<path class="st10" d="M184,215.8c0.6-0.3,0.8-0.9,0.8-1.6c0-0.9,0-1.9,0-2.8c-0.2-22.7,1-45.4,0.7-68.1c0-4,0.4-8.2,3.2-11.5
	c1.1,4.6,0.7,9.4,0.9,14c0.5,12.2,0.2,24.5,0.2,36.8c-2.4,2.3,1,1.8,1.3,2.8c-0.9,3.8-0.7,7.6-0.7,11.4c-2.8,4.7-0.4,8.5,2.3,12.2
	c1.3,1.8,1.1,3-0.9,4.3c-1.4,0.9-3.7,0.8-4,3.1c-0.1,0.1-0.3,0.1-0.5,0.1c-0.3,0-0.6,0-0.9,0l0.1,0c-0.2-0.3-0.4-0.3-0.6,0
	c0,0.4,0,0.8,0,1.2C184.4,218.1,183.6,217.6,184,215.8z"/>
<path class="st11" d="M189.9,182.6c0-12.3,0.3-24.5-0.2-36.8c-0.2-4.6,0.2-9.4-0.9-14c1-3.6,2.5-6.7,6.1-8.4
	c0.2,0.2,0.4,0.5,0.6,0.7c0.7,1.2,1.4,2.4,2,3.6c-0.2,5.5-0.5,11.1-0.6,16.6c-0.1,9.6,0,19.3,0,28.9c0,5.2,0,5.2,5.3,6.6
	c1.5,1.6,3.4,1.2,5.3,1.4c0.3,1.9-0.7,3.4-1.2,5.1c-1.5,0.1-2.9,0.1-4.4,0.2c-0.7-0.9-1.6-1.3-2.6-1.6c-1.4-0.5-2.9-1-4.3-1.5
	c-1-15.2,2.1-30.5-1.8-45.5c-0.8-3.1,0.4-6.7-1.5-9.8c0,18.2,0,36.4,0,54.6C191.1,182.6,190.5,182.6,189.9,182.6z"/>
<path class="st10" d="M225.3,110.8c-3.4-0.4-6.3,1.5-9.6,1.9c0-4.6,0.1-9.2,0.1-13.8c0-2.2,0.6-3.5,3-3.9c2.4-0.4,4.5-1.5,6.4-3.1
	c5.3,0,10.5,0.9,15.8,0.1c0,1.1-0.1,2.3-0.1,3.4c-0.2,0.1-0.3,0.3-0.5,0.3c-3.9-0.1-7.8,0-11.6-1.1c-2.5-0.8-3.6,0.2-3.5,3
	C225.5,102,225.4,106.4,225.3,110.8z"/>
<path class="st2" d="M164.7,220.1c0-0.2,0-0.3,0-0.5c0.2-0.2,0.5-0.5,0.7-0.7c0.6,0,1.3,0.1,1.9,0.1c4,1.6,8,2.9,12.3,3.3
	c0.1,0,0.1-0.2,0.2-0.2c0.2,0,0.4-0.1,0.6,0c20.5,5.5,41.1,11,61.6,16.5c0.7,0.2,1.8,0.1,2,1.2c0.3,0.6,0.7,1.2,1,1.8
	c-6.7-1-13-3.1-19.5-4.9C205.2,231.2,184.7,226.4,164.7,220.1z"/>
<path class="st10" d="M349.7,200.5c-17.8-4.5-35.5-8.9-53.3-13.4c-3.1-0.8-6.3-1.5-9.4-2.3c-0.6-0.1-0.8-0.5-0.9-1.1
	c0.9-0.1,1.4-0.7,1.8-1.4c2.7,0.7,5.3,1.4,8,2c3.1,2.6,7.1,3.1,10.7,4c4.5,1.2,9,2.2,13.5,3.4c9.9,2.6,19.8,5.1,29.7,7.7
	C349.8,199.8,349.7,200.1,349.7,200.5z"/>
<path class="st2" d="M277.9,178.6c-0.1-0.4-0.2-0.8-0.2-1.2c0-20.7,0.1-41.4,0.1-62c1.4,0.4,1.2,1.6,1.2,2.6c0,18.3,0,36.6,0,54.9
	c0,2-0.6,3.9-0.8,5.9C278.1,178.7,277.9,178.6,277.9,178.6z"/>
<path class="st5" d="M277.9,178.6c0,0,0.2,0.2,0.2,0.2c2,1.8,4.7,0.9,7.1,1.6c1.2,0.4,2.5,0.3,2.7,1.9c-0.4,0.7-0.9,1.3-1.8,1.4
	c-4.1,1-7.7-0.7-11.4-1.8c-1.3-0.4-2.5-1.1-3.9-0.8c-0.9-0.1-2-0.2-1.8-1.5c0.2-1.2,1.2-0.8,2-0.8
	C273.3,178.5,275.6,179.8,277.9,178.6z"/>
<path class="st2" d="M195.5,124.1c-0.2-0.2-0.4-0.5-0.6-0.7c1.4-1.2,2.9-2.5,4.3-3.7c7.6,8.3,6.8,18.4,6.2,28.5
	c-0.4,0-0.7-0.1-1.1-0.1c-0.5-4,0.5-8-0.5-11.9c-0.1-1,0-2.1-0.3-3.1c-1-3.8-1.8-7.8-6.1-9.5C196.5,122.5,195.9,122.8,195.5,124.1z"
	/>
<path class="st5" d="M179.8,222.1c-0.1,0.1-0.1,0.2-0.2,0.2c-4.3-0.4-8.4-1.7-12.3-3.3c3.3-0.4,6.6-1.1,9.8-2.3c2.3-0.8,4.6-1.5,7-1
	c-0.4,1.8,0.4,2.3,2,1.8c0.2,0.7,0.4,1.5,0.6,2.2c-2.5-0.4-5-0.8-7.5-1.1c-1-0.1-2.3-0.2-2.5,1.2c-0.2,1.4,1.1,1.2,1.9,1.6
	C179,221.8,179.4,222,179.8,222.1z"/>
<path class="st5" d="M232.2,90c-1.6-1.2-3.4-1.7-6.1-1.5c5.5-3.7,10.8-4,17.2-3.4c-3.3,2.7-6.8,3.5-9.9,4.9
	C233,90,232.6,90,232.2,90z"/>
<path class="st2" d="M232.2,90c0.4,0,0.8,0,1.2-0.1c3.3,1.8,6.4-0.4,9.6-0.5c0.7,1.3,2.2,0.3,3,1.3c-0.4,0.8-0.9,1.4-1.9,0.9
	c-1.1-0.5-2.2-0.1-3.2,0.4c-5.3,0.9-10.5-0.1-15.8-0.1c-0.3-2.3,1.4-1.9,2.7-1.8C229.4,90.2,230.8,91.1,232.2,90z"/>
<path class="st11" d="M165.4,218.9c-0.2,0.2-0.5,0.5-0.7,0.7c-3.5,1.4-6.5-0.7-9.7-1.5c-6.1-1.6-12.1-3.3-18.2-5
	c-0.5-0.1-1-0.3-1.3-1.3c5.7,1.5,11.1,3,16.6,4.3c3.3,0.8,6.5,2.4,10.1,2.2c0.5,0.1,0.9,0.2,1.4,0.3
	C164,219,164.7,219.1,165.4,218.9z"/>
<path class="st5" d="M255.1,97.1c0.1,1.5-0.4,2.9-1,4.2c-0.4-2.9-0.9-5.8-2-8.4c-0.8-1.7-1.5-3.7-3.8-4c-0.1-0.4-0.1-0.7-0.2-1.1
	c3.9-0.1,4.9,2.9,6.1,5.7C254.6,94.7,254.8,95.9,255.1,97.1z"/>
<path class="st6" d="M248,87.9c0.1,0.4,0.1,0.7,0.2,1.1c-0.1,1.3-1.3,1.3-2.1,1.8c-0.8-0.9-2.4,0-3-1.3
	C244.8,89.3,246.2,87.8,248,87.9z"/>
<path class="st10" d="M387.7,369.9c-1.1-0.2-2.2-0.5-3.2-0.7c0-1,1.1-1,1.3-1.7c1.7-1,2.3-2.8,3.2-4.3c0.4-1.4,2.7-1.3,2.5-3.2
	c0-1.3-0.1-2.6-0.1-3.9c0-10.6,0-21.2,0-31.8c0-9.1-0.1-18.3-0.2-27.4c0-15.5-0.1-30.9-0.1-46.4c0-1.5-0.7-2.6-1.5-3.7
	c-3.7-5.6-8.4-10.5-11.7-16.4c1.5-2.4,4.2-1.6,6.3-2.4c2.4-1.4,3-3.3,1.3-5.6c-0.3-1.8-1.3-3.5-0.4-5.4c4.6,0.7,9.2,1.4,13.8,2
	c0.1,10.4,0.1,20.8,0.1,31.2c0,39.6,0,79.1,0.1,118.7c0,4.6,0,4.5-4.5,3.4C392.4,371.7,390.4,369.7,387.7,369.9z M388.9,366.3
	c-0.2,0.6-0.7,1.2,0,1.8c0.1-0.4,0.2-0.7,0.2-1C389,366.9,388.9,366.6,388.9,366.3z"/>
<path class="st5" d="M399.1,219c-4.6-0.7-9.2-1.4-13.8-2c-6.5-1.6-12.9-3.3-19.4-4.9c-15.5-3.8-30.9-7.6-46.4-11.4
	c-0.8-0.8-1.6-1.7-2.3-2.5c21.6,5.2,43.2,10.5,64.8,15.6c5.9,1.4,11.6,3.6,17.8,3.5c0.2,0.3,0.4,0.6,0.6,0.9
	C399.9,218.5,399.5,218.7,399.1,219z"/>
<path class="st11" d="M164.7,220.1c20,6.3,40.5,11,60.8,16.5c6.5,1.7,12.9,3.9,19.5,4.9c1.3,0.4,2.6,0.8,3.9,1.1
	c4.1,0.9,8.1,2.8,12.5,2.2c0.5,1.7,2.4,0.9,3.4,1.8c-3.2,3.1-2.8,7.9,0.8,10.1c1.7,1,2.8,1,2.7-1.4c-0.1-2.9-0.7-5.8,0-8.7
	c0.8-0.1,1.7-0.1,2.5-0.2c0,2.2,0.1,4.3,0,6.5c-0.1,2.7-1.8,5.5,0.8,7.9c-4.9,0.8-9.5,0.3-13-3.7c-0.5-0.6-1.1-0.9-1.9-1
	c-6.6-1.6-13.2-3.2-19.8-4.8c-3-0.6-5.9-1.9-9-1.9c-1.1-2.4-3.6-1.9-5.5-2.4c-3.4-0.9-6.9-1.4-10.4-2.1c-0.1,0.3-0.3,0.6-0.4,0.8
	c2.3,1,4.4,1.7,4.4,4.9c-0.2,13-0.1,26-0.1,39c-2,1-4.2,1.2-6.4,0.9c-0.9-3.8,0.1-7.7-0.2-11.5c-0.6-7.6-0.4-15.3-0.3-22.9
	c0.1-3.4-0.2-6.9,0.1-10.2c0.2-1.9-0.1-2.1-1.6-2.2c-0.6,0-1.1,0-1.7,0c-0.6-0.1-1.6-1.3-1.4,0.6c0.1,1.3,0.1,2.7,0.1,4.1
	c0,7.7,0,15.5-0.1,23.2c-0.1,6.7-0.1,13.4-0.2,20.1c-5.2,0.3-5.2,0.3-5.2-4.8c0.1-13.9,0.1-27.7,0.2-41.6c0-1.6,0-3-1.9-3.4
	c-1.1-0.1-2.2-0.4-3.2-0.7c-3-0.8-6.2-1.7-8.8,1.3c-1.5,0.2-2.1-0.6-2.9-1.7c-1.2-1.6-2.8-3.5-4.8-0.5c-0.8,1.2-2.2,1.4-3.6,1.6
	c-3.9,0.7-4.3,1.3-3.8,5.1c-0.4,0-0.8,0-1.3-0.1c-0.4-1.7-1.6-1.2-2.7-1c-0.3,0-0.6,0-0.9,0c-0.8-0.6-1.7-1-2.7-0.8c0,0,0,0,0,0
	C160.8,236.4,160.5,228.1,164.7,220.1z M167.7,229.4c0.3-1.9-1-2.3-2.4-2.6c-1.7-0.3-1.9,0.9-1.9,2.1c-0.1,1.6,0.3,3,2.1,3.2
	C167.5,232.3,167.5,230.7,167.7,229.4z"/>
<path class="st2" d="M150,320.1c0.1,3.9,0.1,7.8,0.2,11.7c0,1.4-0.7,2-1.9,1.6c-7-1.8-14-3.7-21-5.5c-1.8-0.5-1.3-1.9-1.3-3.1
	c0-12,0-24,0-36c0-2.5,0-5.1,0-7.6c0-1.1-0.3-2.4,1.3-2.9c0.2,0.4,0.5,0.8,0.4,1.2c-1,5.8,0.2,11.5,0.2,17.3c0,1.8,0.2,3.6,1.3,5.1
	c0,0.3,0,0.6,0,0.9c-1.2,1.2,0.3,2,0.5,3c-1,4.6-0.9,4.6,4.6,5.5c2.6,0.5,5.1,0.9,7.7,1.4c0.3-1.8,2.3-2.3,3-3.8
	c1.6,0,2-0.9,1.8-2.3c-0.1-1,0.4-2.3-1-2.6c-5.5-1.2-10.8-3.5-16.5-3.9c-0.2-4.8-0.3-4.8,4.5-3.5c1.2,0.3,2.5,0.6,3.7,0.8
	c2.2,0.5,3.2-0.4,3.1-2.7c0-0.9-0.1-1.9,0-2.8c0.4-2.4-0.7-3.7-3-4.2c-2.4-0.5-4.6-1.4-7-1.7c-2-0.3-2-1.9-1.9-3.4
	c0.2-2.1,1.6-1.2,2.6-0.9c4.7,1.1,9.4,2.2,14,3.8c0.9,0.3,2,0.4,2.3,1.5c0.8,3.1,2.2,6,2,9.4c-0.4,6.8-0.1,13.7,0,20.5
	C149.5,317.9,149.2,319.1,150,320.1z M146.9,326c-0.1-2.5-2.3-2.9-4.4-3.2c-1.8-0.2-2.5,1.2-2.5,2.9c0.1,2.8,2.3,3.3,4.4,3.6
	C146.3,329.5,146.8,328,146.9,326z M131.5,313.9c-1.2,0.1-2.3,0.4-2.1,1.5c0.6,2.7,3.5,0.9,5,2.3c0.4,0.4,1-0.3,0.9-0.8
	C134.9,314.7,133.1,314.3,131.5,313.9z M132.2,323.2c0.6-0.2,2,0.2,1.7-1c-0.3-1.4-1.9-1.4-3.1-1.7c-0.9-0.3-0.9,0.6-0.9,1.2
	C129.9,323.2,131,323.2,132.2,323.2z"/>
<path class="st11" d="M118.5,280.3c0.2,1,0.2,1.7-0.9,2.4c-6.7,4.4-8.7,9.6-7.1,17.6c0.3,1.6,0.6,3.3,1.5,4.8
	c0.5,1.9,1.7,3.3,3.1,4.5c1.2,1.1,2.4,1,3.4-0.3c0.1,3.5,0.3,7,0.4,10.5c-2.4-0.2-4.2-1.9-6.3-2.8c-9.1-12-8.1-26.7,2.5-38
	c0.7,0,1.3-0.1,2-0.1C117.4,279.6,117.8,280.1,118.5,280.3z"/>
<path class="st5" d="M129.2,301.8c-1.1-1.5-1.3-3.3-1.3-5.1c0-5.8-1.2-11.5-0.2-17.3c0.1-0.4-0.3-0.8-0.4-1.2
	c5.4,0.2,10.5,1.9,15.5,3.5c8.4,2.6,7.3,1.3,7.3,9.9c0,9.4,0,18.9,0,28.3c-0.8-1-0.6-2.2-0.6-3.3c-0.1-6.8-0.4-13.7,0-20.5
	c0.2-3.5-1.2-6.3-2-9.4c-0.3-1.1-1.4-1.2-2.3-1.5c-4.6-1.7-9.3-2.7-14-3.8c-1-0.2-2.4-1.1-2.6,0.9c-0.1,1.5-0.1,3.1,1.9,3.4
	c2.4,0.3,4.7,1.2,7,1.7c2.4,0.5,3.4,1.8,3,4.2c-0.1,0.9-0.1,1.9,0,2.8c0.1,2.2-0.9,3.1-3.1,2.7c-1.2-0.3-2.5-0.5-3.7-0.8
	c-4.7-1.3-4.7-1.3-4.5,3.5C129.3,300.6,129.2,301.2,129.2,301.8z M137.4,289.7c-2-0.8-4-1.6-6-2.5c-0.6-0.3-1.2-0.4-1.7,0.2
	c-1.4,1.6,0.2,6,2.3,6.5C135.6,294.8,136.4,292.3,137.4,289.7z"/>
<path class="st0" d="M117.2,278.9c-0.7,0-1.3,0.1-2,0.1c0.9-5.7,1.7-11.5,2.6-17.2c0.1-0.4,0.7-0.7,1-1.1c0,5.4,0,10.8,0,16.2
	C118.9,278.1,118.6,278.9,117.2,278.9z"/>
<path class="st0" d="M147.9,130.1c0.2-1.2,0.1-3,2.1-2.7c2,0.3,3,2,3,3.9c0,1.4-0.7,2.8-2.4,2.8C148.1,134.1,148.1,132,147.9,130.1z
	"/>
<path class="st8" d="M118.4,191.9c-0.7-0.5-1.5-1.1-1.5-1.9c-0.4-4.5-0.2-8.9,2.2-13C119.1,182,119.6,187,118.4,191.9z"/>
<path class="st11" d="M121.6,208.5c4.1,0.5,8.1,1.4,11.8,3.1C129.4,211.3,125.5,209.9,121.6,208.5z"/>
<path class="st12" d="M119,141.4c-0.6,0.2-1.1,0.5-1.7,0.2c-0.3-0.2-0.3-0.5,0-0.7c0.6-0.4,1.2-0.1,1.7,0.1
	C119.1,141.1,119.1,141.2,119,141.4z"/>
<path class="st0" d="M88.4,323.2c0.1-0.6-0.2-0.9-0.7-1.2c-2.9-1.6-5.7-3.4-7.6-6.3c-1.1-1.7-2.7-3.1-4.7-3.9
	c-1.8-0.7-2.5-2.4-3.1-4.1c0-0.1-0.1-0.2-0.1-0.3c-0.5-0.2-0.5,0.2-0.6,0.5c-0.7-3.8-2-7.5-0.4-11.4c2.1-0.4,2.4,1.8,3.5,2.7
	c3,2.5,6.6,3.6,10,5.1c3.9,1.8,7,3.9,8.1,8.6c1.4,6.4,5,11.7,9.5,16.4c-2.6,0.3-3.9-2.1-5.8-3.1c-1.8-0.9-3.4-1.9-5.5-1.9
	c0.1-1.2-0.6-1.1-1.3-0.8C89.2,323.5,88.8,323.4,88.4,323.2z"/>
<path class="st10" d="M116.6,179.8c-0.4,3.3-0.9,6.6-1.3,9.9c-0.1,1-0.4,2-1.7,1.8c-1.1-0.2-1-1.3-0.8-2.1c0.7-3.4,0.8-7.1,3.7-9.8
	L116.6,179.8z"/>
<path class="st10" d="M116.5,179.7c0.1-0.2,0.3-0.4,0.4-0.6c-0.1,0.2-0.2,0.5-0.3,0.7C116.6,179.8,116.5,179.7,116.5,179.7z"/>
<path class="st10" d="M118.6,309.2c-1,1.4-2.2,1.5-3.4,0.3c-1.4-1.3-2.6-2.7-3.1-4.5c1.5-5.5,3-11,4.4-16.6c0.3-1.4,0.7-2.5,2-3.3
	c1,0.9,0.6,2,0.6,3C118.8,295.1,119.7,302.2,118.6,309.2z"/>
<path class="st8" d="M89.5,323.6c0.8-0.2,1.5-0.4,1.3,0.8C90.2,324.4,89.6,324.5,89.5,323.6z"/>
<path class="st12" d="M352.4,411.7c-1.5-1.4-0.5-3.3-0.8-4.9c-0.1-0.4,0.2-0.8,0.8-0.7c0.6,0.2,0.6,0.8,0.7,1.3c0,0.9-0.5,2.3,1.3,2
	c2.1-0.4-0.1-1.8,0.5-2.6c0,0,0.1-0.2,0.1-0.2c0.1-0.2,0.3-0.3,0.4-0.5c0-0.1,0.1-0.2,0.2-0.2c0.3,0.7,0.6,1.3,1.1,2.3
	c0.3-1.2,0.4-2,0.6-2.8c0,0,0.1-0.1,0.1-0.1c0.5-0.7,2,2.4,1.9-0.5c0,0,0.1,0,0.1,0c0.7,0.3,1.2,0.9,2.2,0.8c2.1-0.2,1.5,1,1,2.1
	c-1.9,0.7-3.8,1.4-5.8,2.1c-0.2,0.1-0.4,0.2-0.6,0.3c-0.5,0.1-1,0.2-1.5,0.2c-0.6,0.1-1.3,0.1-1.6,0.8c0,0,0,0,0,0
	C352.8,411.4,352.6,411.5,352.4,411.7z"/>
<path class="st6" d="M362.5,407.8c0.5-1.1,1.1-2.3-1-2.1c-1,0.1-1.5-0.5-2.2-0.8c1-1.7,2.8-1.6,4.4-1.9c-0.1,0.6-0.3,1.3,0.3,1.9
	c0.4-0.7,0.3-1.3-0.3-1.8c0.4-0.5,0.6-1.6,1.5-1.3c0.7,0.2,0.4,1.1,0.4,1.6C365.7,405.5,366.1,408,362.5,407.8z"/>
<path class="st1" d="M354.9,406.8c-0.6,0.8,1.6,2.2-0.5,2.6c-1.8,0.3-1.3-1.1-1.3-2C353.9,408,354.3,407,354.9,406.8z"/>
<path class="st1" d="M357.3,405.4c-0.2,0.8-0.3,1.6-0.6,2.8c-0.5-1-0.8-1.6-1.1-2.3C356,405.3,356.7,405.4,357.3,405.4z"/>
<path class="st1" d="M359.3,404.8c0.1,2.9-1.4-0.2-1.9,0.5C357.7,403.9,358.5,404.5,359.3,404.8z"/>
<path class="st1" d="M353.1,411.2c0.3-0.7,1-0.7,1.6-0.8C354.3,411.2,353.7,411.3,353.1,411.2z"/>
<path class="st1" d="M355.4,406.1c-0.1,0.2-0.3,0.3-0.4,0.5C355.1,406.5,355.2,406.3,355.4,406.1z"/>
<path class="st1" d="M356.2,410.2c0.2-0.1,0.4-0.2,0.6-0.3C356.6,410,356.4,410.1,356.2,410.2z"/>
<path class="st1" d="M352.4,411.7c0.2-0.1,0.4-0.3,0.7-0.4C352.8,411.4,352.6,411.5,352.4,411.7z"/>
<path class="st11" d="M391.6,360c0.2,1.9-2.1,1.8-2.5,3.2c-2-0.3-3.7,1-5.6,1.4c-2.7,0.8-5.5,1.7-8.2,2.5c-4.4-2.3-9-1.8-13.5-0.9
	c-11.6,2.2-22.4,7-33.5,10.7c-2.9,0.9-5.9,1.6-8.7,2.8c-9.3,4-18.9,7-28.6,9.8c-3.7,1-7.5,2.5-11.2,2.5c-4.5,0-9.1-0.9-13.5-2
	c-5.4-1.3-10.9-2.1-16.2-3.9c-8.6-2.9-17.7-3.5-26.3-6.6c-7.5-2.8-15.8-3-23.6-4.7c-1.1-0.2-2.4-0.4-2.7,1.3c-4-0.2-7.7-2-11.6-2.7
	c-1.9-0.4-1.9-1.8-1.7-3.1c0.2-1.7-1-3.9,1.7-4.8c2.9-0.9,5.8-1.9,8.4-3.4c2.2,0,3.8-1.5,6.5-2.2c-2.9-0.5-4.5,0.4-6.2,1.1
	c-2.7,0.9-5.4,1.8-8,2.8c-1.4,0.5-2.1,0.1-2.3-1.5c-0.7-5.5,1.3-7.6,6.6-6.5c15,3.1,29.5,7.6,44.2,11.7c15.1,4.2,30.1,8.6,45.2,12.9
	c1.7,0.5,3.5,1.1,5.2,0c1.1-0.3,2.2-0.6,3.3-1c24.8-8.4,49.7-16.8,74.5-25.1c1.2-0.4,2.5-1.2,3.6-0.4c5.1,3.2,11.1,3.5,16.7,5.1
	C386.1,359.4,388.8,360.3,391.6,360z"/>
<path class="st10" d="M197.5,375.9c0.3-1.7,1.6-1.6,2.7-1.3c7.9,1.7,16.1,1.9,23.6,4.7c8.6,3.2,17.7,3.7,26.3,6.6
	c5.3,1.8,10.8,2.6,16.2,3.9c4.4,1.1,9,2.1,13.5,2c3.7,0,7.5-1.5,11.2-2.5c9.7-2.7,19.3-5.8,28.6-9.8c2.8-1.2,5.8-1.9,8.7-2.8
	c11.1-3.6,21.9-8.4,33.5-10.7c4.5-0.9,9.1-1.4,13.5,0.9c0,0,0-0.1,0-0.1c-0.5,0.1-1,0.2-1.3,0.7c-0.8,2.1-2.6,0.2-4,0.9
	c-12.9,6-26.6,10-40,14.7c-9.6,3.4-19.3,6.5-29,9.8c-4.5,1.6-9,3.3-13.4,5c-3.2,1.2-6,1.8-9.6,0.5c-12.1-4.3-24.5-7.5-36.9-10.7
	c-13.7-3.6-27.4-7.3-41.1-11C199,376.6,198.3,376.2,197.5,375.9z"/>
<path class="st10" d="M170.3,246.8c-0.5-3.8-0.1-4.4,3.8-5.1c1.4-0.2,2.8-0.5,3.6-1.6c2-3,3.6-1.1,4.8,0.5c0.8,1.1,1.5,1.9,2.9,1.7
	c0,0.2-0.1,0.5-0.1,0.7c-1.5,0.1-3.5-0.4-3,2.2c0.3,1.3,0.7,2.7,2.6,2.3c2.4-0.5,1.6-1.9,1-3.2c1.6-0.3,2.7,1.8,4.4,1
	c-0.4,1-0.2,2-0.2,3.1c0.2,3.6,1.5,7.7-0.7,10.7c-1.9,2.6-1.6,4.7-0.3,6.9c1.1,1.9,1.3,3.7,1.3,5.7c0,22.6,0,45.2,0,67.9
	c0,1.3-0.4,2.8,0.6,3.9c-2.1,1.4-4.5,2.1-6.9,2.7c0-3.4,0-6.7,0-10.1c0-18.4-1.1-36.8-0.7-55.2c0.1-4-1.7-7.6-2.8-11.2
	c-2-6.4-2.3-12.9-2.9-19.5c-0.2-2.2-1.9-2.5-3.5-2.8C172.9,247.3,171.4,247.9,170.3,246.8z"/>
<path class="st2" d="M391.6,360c-2.8,0.3-5.4-0.5-8.1-1.3c-5.6-1.6-11.5-1.9-16.7-5.1c-1.2-0.7-2.5,0-3.6,0.4
	c-24.8,8.4-49.7,16.8-74.5,25.1c-1.1,0.4-2.2,0.6-3.3,1c0-1.5,0-2.9,0-4.4c0.6-0.1,1.3,0,1.8-0.2c5.3-2.6,10.9-4.3,16.5-6.3
	c11.2-3.9,22.5-7.5,33.6-11.7c8.9-2.3,17.4-5.7,25.9-9.2c5.1-1.5,9.9-3.9,15.1-4.8c-0.3,2.5,0.6,5.2-1.6,7.4
	c-0.8,0.7,0.1,1.2,0.9,1.4c4.5,1.5,9.2,2.8,13.9,3.7C391.5,357.3,391.5,358.6,391.6,360z M367.8,353.1l-0.1,0.2l0.2,0L367.8,353.1z"
	/>
<path class="st10" d="M278.4,406c0.4,2.7-1,2.6-3,2.1c-15.3-4.4-30.5-8.8-45.8-13.1c-13.7-3.8-27.4-7.6-41-11.4
	c-1.2-0.3-2.4-0.8-3.5-1.4c-1.5-0.9-1.4-2.7-1-4c0.4-1.1,1.9-0.6,2.8-0.3c4.8,1.3,9.5,2.6,14.3,3.9c24.5,6.9,49,13.7,73.5,20.6
	C276.6,402.8,278.9,403,278.4,406z"/>
<path class="st12" d="M337.2,357.5c-11.1,4.2-22.4,7.9-33.6,11.7c-5.6,1.9-11.2,3.7-16.5,6.3c-0.5,0.3-1.2,0.2-1.8,0.2
	c-0.4-1.5-1.7-1.4-2.8-1.6c-6.5-1.6-13-3.2-19.3-5.4c-0.1-1.8,0.9-2.5,2.6-2.5c1,0,2.1,0.2,2.4-1.2c1.9,0.5,4,0.7,5.8,1.5
	c6.8,3.1,13.2,2,19.9-0.6c10.9-4.1,21.9-8,33.1-11.1c-0.1,1.5,0.9,1.9,2.2,1.9c2.1-0.1,4.1,0,6.2-0.2
	C336.4,356.5,337.1,356.4,337.2,357.5z"/>
<path class="st14" d="M184.3,346.2c2.4-0.5,4.8-1.3,6.9-2.7c0,0,0,0,0,0c1.8-0.5,3.6-0.7,5.2-1.9c0.4-0.1,0.7-0.1,1.1-0.2
	c0.7-0.3,1.3-0.5,2-0.8c1.7-0.8,3.6-0.9,5-2.3c0.4,0,0.9,0,1.3-0.1c0.5,0.1,1-0.1,1.3-0.5c0.4-0.1,0.9-0.2,1.3-0.3
	c3.1-1.1,6.2-2.1,9.2-3.2c3,0.5,6,1,8.9,1.5c0.4,2.2-2,2.7-2.7,4.2c-0.6,0.1-1.1,0.1-1.7,0.2c-0.8,0-1.2,0.4-1.5,1
	c-2.8,0-4.9,2-7.4,2.6c-1,0.1-2.3-0.2-2.5,1.3c-0.9,0.4-1.8,0.7-2.7,1.1c-0.8,0-1.6,0.1-2.4,0.1c-0.6,0-1.2,0-1.9,0.1
	c-3.2,0.9-6.4,1.7-9.6,2.6c-1.6-0.3-3.2-0.7-4.7-1C187.7,347.6,186,346.9,184.3,346.2z"/>
<path class="st9" d="M268.3,365.1c-0.3,1.4-1.5,1.2-2.4,1.2c-1.7,0-2.7,0.7-2.6,2.5c-12.1-3.1-24.1-6.3-36-10.1
	c0.5-1.7,1.7-1.3,2.7-0.8c2.3,1.1,3.7,0,4.8-1.8c2.9,0.5,5.5,1.8,8.3,2.5C251.6,360.4,260,362.5,268.3,365.1z"/>
<path class="st15" d="M234.8,356.1c-1.2,1.8-2.6,2.9-4.8,1.8c-1.1-0.5-2.3-1-2.7,0.8c-6.4-1.4-12.8-3.2-19-5.3
	c-0.4-1.8-1.4-3.5-1.3-5.4c0.2,0,0.5-0.1,0.7-0.1c3.1,0.9,6.2,1.8,9.3,2.7C222.9,352.4,228.8,354.2,234.8,356.1z"/>
<path class="st10" d="M169.1,320.3c-0.4-2.2,0.3-3.3,2-4.2c1.8-1,3.4-2,5.4-2.6c1.1-0.3,2.5-1.9,3.5,0.1c0.8,1.6,1,3.4-0.6,4.6
	c-2.6,2-5.7,3.1-8.9,3.9C168.3,322.7,169.3,320.8,169.1,320.3z"/>
<path class="st11" d="M169.1,328.7c-0.3-1.8,0.6-2.8,2.3-3.1c1.3-0.3,2.6-0.9,4-1c1-0.1,2.5-1.7,3,0.6c0.5,1.8,1.1,3.8-1.6,4.6
	c-1.6,0.5-3.3,0.8-4.9,1.3C169.7,331.8,168.7,331.1,169.1,328.7z"/>
<path class="st11" d="M169.6,307.3c-0.4-2,0.6-2.8,2.4-3.2c1.3-0.2,2.6-0.7,3.9-1.1c1.1-0.3,2.3-1,2.7,0.8c0.3,1.4,0.9,3-1.1,3.7
	c-1.8,0.6-3.6,1.2-5.4,1.8C170.1,310.1,169.2,309.6,169.6,307.3z"/>
<path class="st11" d="M178,294.9c0.3,1.6-0.5,2.5-2.1,2.8c-1,0.2-2,0.7-3,0.8c-1,0.1-2.4,1.5-3,0c-0.6-1.5-0.2-3.4,1.4-4.4
	c1.1-0.7,2.5-1.1,3.7-1.6C177.2,291.7,178.2,292.5,178,294.9z"/>
<path class="st2" d="M189.5,348.2c1.6,0.3,3.2,0.7,4.7,1c2,1,4.1,1.7,6.4,2c0,0.2,0,0.3,0,0.5c-2.6,3.8-5.8,0.4-8.7,0.7
	C190.3,352.6,188.6,350.6,189.5,348.2z"/>
<path class="st9" d="M200.6,351.8c0-0.2,0-0.3,0-0.5c-0.5-2.6,3.2-2.3,3.2-4.6c0.6,0,1.2,0,1.9-0.1c0.1,0.8,0.5,1.3,1.3,1.4
	c-0.1,1.9,0.9,3.6,1.3,5.4C205.7,352.8,203.1,352.3,200.6,351.8z"/>
<path class="st2" d="M383.4,364.5c1.9-0.4,3.6-1.7,5.6-1.4c-0.9,1.6-1.5,3.4-3.2,4.3C384.5,366.9,385.2,364.7,383.4,364.5z"/>
<path class="st10" d="M194.5,360.7c1.7-0.7,3.4-1.6,6.2-1.1c-2.8,0.7-4.3,2.3-6.5,2.2C194.4,361.4,194.4,361.1,194.5,360.7z"/>
<path class="st10" d="M162.7,244.9c1-0.1,1.9,0.2,2.7,0.8C163.7,247.8,163.1,246.6,162.7,244.9z"/>
<path class="st10" d="M166.3,245.7c1.1-0.2,2.3-0.6,2.7,1C167.9,246.9,166.8,247,166.3,245.7z"/>
<path class="st11" d="M373.9,367.6c0.3-0.5,0.8-0.6,1.3-0.7C374.9,367.5,374.4,367.5,373.9,367.6z"/>
<path class="st8" d="M349.7,200.5c0-0.4,0-0.7,0-1.1c0.8,0,1.5,0,2.3,0c0.7,0.8,1.8,0.8,2.7,1c13.1,3.3,26.2,6.6,39.3,9.9
	c0,0.2,0,0.3,0,0.5l0,0c-4.5,0.1-8.7-1.5-12.9-2.5C370.7,205.7,360.2,203.1,349.7,200.5z"/>
<path class="st13" d="M351.6,175.4c0.5,0,1.2,0.2,1.2,0.8c0.6,5.9,2.1,11.8,1.4,17.9c-0.1,0.9-0.5,1.3-1.3,1.5
	C353.3,188.8,352.5,182.1,351.6,175.4z"/>
<path class="st13" d="M349.2,167.8c2.8,1.9,2.7,4.7,2.5,7.6C350.2,173.1,349.6,170.5,349.2,167.8z"/>
<path class="st13" d="M342.8,155.2c3,1.1,3.5,3.6,3.8,6.3C344.8,159.7,343.6,157.6,342.8,155.2z"/>
<path class="st13" d="M346.5,161.6c2.2,1.4,2.9,3.4,2.5,5.9C347.8,165.7,346.8,163.8,346.5,161.6z"/>
<path class="st13" d="M354.7,200.4c-0.9-0.2-2-0.2-2.7-1c0.3-1.1,0.6-2.3,0.9-3.4C352.6,197.8,355.2,198.5,354.7,200.4z"/>
<path class="st13" d="M341,153.7c0.2-0.4,0.4-0.7,0.6-1.1c1.6,0.3,1.2,1.5,1.2,2.6C341.8,155.2,341.6,154.1,341,153.7z"/>
<path class="st8" d="M396,210.8c-0.6,0.7-1.3,0.7-1.9-0.1c0,0,0,0,0,0c0.3-0.1,0.6-0.1,0.9-0.2C395.3,210.6,395.6,210.7,396,210.8z"
	/>
<path class="st2" d="M395,210.6c-0.3,0.1-0.6,0.1-0.9,0.2c0-0.2,0-0.3,0-0.5C394.4,210.3,394.7,210.5,395,210.6z"/>
<path class="st11" d="M319.5,200.7c15.5,3.8,30.9,7.6,46.4,11.4c6.5,1.6,12.9,3.3,19.4,4.9c-0.9,1.9,0.1,3.6,0.4,5.4
	c-3.4-0.1-4,0.8-2.9,4.7c0.1,0.4,0.4,0.7,0.8,0.7c0.2,0.1,0.5,0.2,0.7,0.3c-2.1,0.8-4.8,0-6.3,2.4c-1.6-1.6-2.3-4.3-4.9-4.9
	c-6.8-1.7-13.6-3.4-20.4-4.9c-1.5-0.3-3.2-1.2-4.7,0.2c-1.7-0.8-3.4-1.6-5.1-2.4c-6.5-1.6-13-3.2-19.5-4.8
	c-8.9-2.3-17.6-5.4-26.8-6.6c-1.5-1.3-3.2-1.4-5-1.2c-1.2-0.2-2.4-0.5-3.6-0.7c-1.9-0.3-3-1.2-2.9-3.2c0.2-3,0.1-5.9-1-8.7
	c0.7-1,1.4-0.4,2.2-0.2c10.7,3.2,21.6,5.1,32.4,7.8C319,200.8,319.3,200.7,319.5,200.7z"/>
<path class="st11" d="M399.7,217.3c-6.2,0.1-11.9-2.1-17.8-3.5c-21.6-5.1-43.2-10.4-64.8-15.6c-9.4-2.4-18.8-4.7-28.1-7.1
	c-1.6-0.4-3.3-0.8-4.9-1.4c-1-0.4-2.8-0.1-2.2-2.2c0.6-1.9,2-1.6,3.3-1.3c4.9,1,9.9,2,14.8,3.2c32.9,8.1,65.8,16.2,98.7,24.3
	c1.1,0.3,2.5,0.2,2.8,1.6C401.7,216.4,400.5,216.8,399.7,217.3z"/>
<path class="st11" d="M248.2,197.3c-0.6-1.3-0.8-2.6-0.2-3.9c4.7,1.2,9.3,2.5,14,3.7c1.2,0.3,2.4,0.6,2.9,2c0,0,0,0,0,0
	c-0.5,1.2,0.2,2.3,0.3,3.4c-0.1,0.6-0.1,1.1,0.5,1.3c-0.3,1.5,0,2.9,0.4,4.4c-2.6,0.2-4.9-1.1-7.3-1.8c-5.6-1.5-10.4-4.7-15.9-6.5
	c-0.6-0.7-1.8-0.9-1.6-2.2c0.8-0.6,1.8,0,2.7-0.3c1.3,0.2,2.5,0.4,3.8,0.6c0.6,0.7,1.6,0.9,1.9,1.9c-0.1,0.2-0.3,0.4-0.4,0.6
	c0,0,0.1,0.1,0.2,0.2c0.1-0.2,0.2-0.5,0.3-0.7C250.8,198.2,249.5,197.8,248.2,197.3z"/>
<path class="st8" d="M265,199C265,199,265,199.1,265,199c0.1-1.5,1.3-1.5,2.4-1.7c5.7-1,11.4-2,16.8-4.3c1.1,2.8,1.1,5.7,1,8.7
	c-2.5,0.5-5,0.9-7.6,1.4c0.2-1,0.4-2,0.6-3.1c0.6-2.9,0.1-3.2-2.8-2.7c-3.1,0.6-5.8,2.5-9,2.6C266,199.7,265.5,199.4,265,199z"/>
<path class="st8" d="M249.4,191.8c-2.3-0.2-1.1-2-1.3-3.1c-0.2-1,0.1-1.8,1.5-1.7c1,0.1,2,0,3.1,0c2.9,2.4,3.8,2.1,5-1.6
	c0.4,0.1,0.8,0.2,1.2,0.3c0.1,1.4-0.2,2.8,0.6,4.1c0,1.1-0.8,1.3-1.7,1.4c-2.5-2.7-4-2.6-5.9,0.5
	C251.1,191.7,250.2,191.8,249.4,191.8z"/>
<path class="st5" d="M258.8,185.7c-0.4-0.1-0.8-0.2-1.2-0.3c0,0,0,0,0,0c0.1-1.1-0.8-2.5,1.1-2.9c1.3,0.5,2.6,0.5,3.9,0.4
	c0.4,0.2,0.8,0.4,1.2,0.7c0,0.4,0,0.9,0,1.3c-0.7,0.3-1.4,0.6-1.7,1.4C260.9,186.1,259.8,185.9,258.8,185.7z"/>
<path class="st11" d="M258.8,185.7c1.1,0.2,2.1,0.3,3.2,0.5c0.7,0.7,2.1,0.9,1.5,2.3c-0.8,2.1-2.6,1-4.1,1.3
	C258.6,188.5,258.9,187.1,258.8,185.7z"/>
<path class="st10" d="M251.9,191.7c1.9-3.1,3.4-3.2,5.9-0.5C255.8,192,254,193.1,251.9,191.7z"/>
<path class="st10" d="M274.8,189.6c-1.6,0.1-3.3,0.7-5.3-0.4C271.7,187.9,273.2,189.5,274.8,189.6z"/>
<path class="st2" d="M263.7,183.6c-0.4-0.2-0.8-0.4-1.2-0.7c0.1-0.9,0-1.9,0.3-2.8c0.8-3-0.8-3.9-3.4-4c-0.9,0-1.9-0.3-2.7,0.5
	c-0.9,2.9-0.3,5.9-0.3,8.9c-0.2,0-0.4,0-0.6,0.1c-0.3-3.2,0.5-6.5-0.6-9.6c-0.3-0.9,0.5-1.3,1.1-1.7c1.6,0.3,3.3,0.4,4.9,0.8
	C265.4,175.9,266.6,180,263.7,183.6z"/>
<path class="st0" d="M244.1,197.5c-0.9,0.3-1.9-0.4-2.7,0.3c-0.2,1.3,1,1.5,1.6,2.2c-0.3,1.1-0.5,2.1-0.8,3.2
	c-2.4,0.9-0.5,1.7,0,2.5c-1.9-0.2-2.6,0.6-2.6,2.5c0.1,3.7,0,7.3,0,11c0,1.1,0.3,2.4-1.1,3c-1.1,0-2.1,0-3.2,0
	c-1.1-0.2-2.3-0.4-3.3-0.7c-6.6-2.2-6.6-2.2-6.7-7.1c0.1-0.8,0.3-1.7,0.3-2.5c0.2-6.2,0.9-12.3-0.4-18.5c0-0.7,0-1.4,0-2.1
	c0-1.1-0.1-2.3-0.1-3.4c0-2.9,0-5.8,0-8.7c0-1.3,0-2.7,0.1-4c0.6-1.1,0.5-2.2,0.5-3.4c0-19.1,0-38.2,0-57.3c0-1.3,0.1-2.5-0.4-3.7
	c0-4.4,0.2-8.8,0-13.3c-0.1-2.8,1-3.8,3.5-3c3.8,1.2,7.7,1.1,11.6,1.1c-1,1.4-0.7,3-0.7,4.6c0,30.1,0.1,60.2,0,90.3
	C239.6,194.2,239.9,197,244.1,197.5z"/>
<path class="st11" d="M254.3,104c1.3,8.7,1.6,17.3,0.8,26.7c-2.1-2.2-3.5-4.3-6.2-4.5c-1.1-0.1-0.8-1.3-0.8-2.1
	c0-6.3,0.1-12.6,0.1-19c0.9-0.8,0.3-2,1-3.3c0.1,2.1,0.8,3,2.7,2.3C252.6,103.8,253.4,103.7,254.3,104z"/>
<path class="st8" d="M254.3,104c-0.8-0.3-1.6-0.3-2.4,0.1c-1.8,0.7-2.6-0.1-2.7-2.3c-0.6,1.3-0.1,2.5-1,3.3
	c-0.1-2.9-0.2-5.9-0.2-8.8c0-2.3-0.4-3.9-3.2-2.3c-1.2,0.6-2.5,0.9-3.8,1.4c0-1.1,0.1-2.3,0.1-3.4c1-0.5,2-0.9,3.2-0.4
	c1,0.5,1.5-0.1,1.9-0.9c0.8-0.5,2-0.4,2.1-1.8c2.3,0.4,3,2.3,3.8,4c1.2,2.7,1.7,5.5,2,8.4C254.4,102.2,254.5,103.1,254.3,104z"/>
<path class="st10" d="M255.8,185.6c0.2,0,0.4,0,0.6-0.1c0.4,0,0.8-0.1,1.1-0.1c0,0,0,0,0,0c-1.1,3.7-2.1,4-5,1.6
	C253.7,186.6,255,186.7,255.8,185.6z"/>
<path class="st10" d="M248.2,197.3c1.3,0.4,2.6,0.9,1.8,2.7l-0.1-0.1c-0.3-1-1.4-1.2-1.9-1.9C248,197.8,248.1,197.6,248.2,197.3z"/>
<path class="st5" d="M204.4,148.1c0.4,0,0.7,0.1,1.1,0.1c-0.1,8.9-0.2,17.9-0.2,26.8c0,2.5,0.1,1.8,2.3,2c1.8,0.1,3.3-0.5,4.9-0.7
	c1.7,1.5,3.8,0.7,5.7,1c2.2,0.3,4.7-0.1,6.4,1.9c-3,1.9-6.4,1.8-9.7,1.9c-2.5,0.1-5,0.2-7.5,0.2c-1.8-0.2-3.8,0.2-5.3-1.4
	c0.2-0.7,2.3-0.9,0.5-2.1c1.3-0.9,1.3-2.2,1.3-3.6c0-7.2,0.1-14.4,0.1-21.6C204.2,151.1,204.3,149.6,204.4,148.1z"/>
<path class="st8" d="M224.7,179.1c-1.8-1.9-4.2-1.5-6.4-1.9c-1.9-0.3-4,0.5-5.7-1c2.8-2.5,6.1-2.6,9.5-1.8c1.1,0.3,2.1,0.9,3.3,0.8
	c0,1.3,0,2.7-0.1,4C225.1,179.3,224.9,179.2,224.7,179.1z"/>
<path class="st11" d="M188,216.4c0.3-2.3,2.6-2.2,4-3.1c2-1.3,2.2-2.5,0.9-4.3c-2.7-3.7-5-7.5-2.3-12.2c2.2,0.4,3.1-0.4,3.2-2.8
	c0.1-2.4,0.7-4.9,1.2-7.3c1.5,0.2,2.9,0.4,4.4,0.6c0.6,0.3,1.2,0.5,1.9,0.8c0.1,6.3-1.3,12.5-0.1,18.8c0.3,1.6-0.3,3.8-2.4,4.4
	c-3.7,1-0.9,1.8,0,2.7c-2.4,0-4.9-0.3-6.8,1.5C190.6,215.8,189.3,216.1,188,216.4z"/>
<path class="st2" d="M188,216.4c1.3-0.3,2.6-0.6,3.9-0.9c-0.1,0.9,0.2,2.1-0.2,2.8c-1.5,2.3,0,2.3,1.6,2.7c4.6,0.9,9.2,2,13.7,3
	c0.9,0.2,1.8,0.4,2.8,0.6c15.5,4,31,8,46.6,11.9c0.6,0.1,1.2,0.1,1.8,0.2c1.9,0.7,3.9,1.3,5.8,2c3.4,1.9,6.6,1.3,9.5-1.2
	c0.7-0.4,1.4-0.9,2.1-1.3l0.3,0.1c0.3,1.1,1.3,1.1,2.2,1.2c-4.3,2.8-8.7,4.2-13.9,2.7c-24.4-6.8-48.9-13.1-73.6-19
	c-1.2-0.3-2.9,0.4-3.7-1.2c-0.2-0.7-0.4-1.5-0.6-2.2c0-0.4,0-0.8,0-1.2c0.2,0,0.4,0,0.6,0c0,0-0.1,0-0.1,0c0.3,0.6,0.6,0.4,0.9,0
	C187.7,216.5,187.8,216.5,188,216.4z"/>
<path class="st8" d="M194.9,186.7c-0.4,2.4-1.1,4.9-1.2,7.3c-0.1,2.4-1,3.2-3.2,2.8c0-3.8-0.2-7.6,0.7-11.4
	C192.5,185.6,193.8,185.8,194.9,186.7z"/>
<path class="st2" d="M194.9,186.7c-1.1-0.8-2.4-1.1-3.7-1.3c-0.4-1-3.7-0.5-1.3-2.8c0.6,0,1.2,0,1.8,0.1c1,0.8,2.1,0.9,3.3,0.8
	c1.4,0.5,2.9,1,4.3,1.5c0,0.8,0,1.5,0,2.3C197.9,187.1,196.4,186.9,194.9,186.7z"/>
<path class="st11" d="M187.5,216.5c-0.3,0.4-0.6,0.6-0.9,0C186.9,216.5,187.2,216.5,187.5,216.5z"/>
<path class="st11" d="M186.7,216.5c-0.2,0-0.4,0-0.6,0C186.3,216.2,186.5,216.2,186.7,216.5z"/>
<path class="st10" d="M195,183.5c-1.2,0.1-2.3,0-3.3-0.8c0-18.2,0-36.4,0-54.6c1.9,3.1,0.6,6.7,1.5,9.8
	C197.1,153,194,168.3,195,183.5z"/>
<path class="st8" d="M202.7,177.8c1.8,1.1-0.3,1.4-0.5,2.1c-5.2-1.4-5.3-1.4-5.3-6.6c0-9.6-0.1-19.3,0-28.9
	c0.1-5.5,0.4-11.1,0.6-16.6c0.2-0.8,0.4-1.5,0.6-2.3c0.9,1.1,0.5,2.4,0.5,3.7c0.2,14.8,0.5,29.6,0.5,44.4
	C199.2,176.3,200,177.7,202.7,177.8z"/>
<path class="st10" d="M224.7,179.1c0.2,0.1,0.4,0.1,0.6,0.2c0,2.9,0,5.8,0,8.7c-0.6,0-1.2,0-1.7,0c0.2-1.4-0.4-2.3-1.8-2.5
	c-2.1-0.4-4.2-0.9-6.5-0.5c-2.9,0.6-5.9,1.4-9,1.3c0.5-1.7,1.6-3.2,1.2-5.1c2.5-0.1,5-0.1,7.5-0.2
	C218.3,180.9,221.7,181.1,224.7,179.1z"/>
<path class="st2" d="M206.3,186.4c3.1,0.1,6-0.7,9-1.3c2.3-0.5,4.4,0.1,6.5,0.5c1.3,0.2,1.9,1.1,1.8,2.5c-1.8-0.3-3.7-0.2-5.4-0.8
	c-2.8-1-3,0.4-2.8,2.5c-0.3,0.5-0.5,1-0.8,1.4c-4.2-1.1-8.6-1.2-12.6-3.2c0-0.5,0-0.9,0-1.4C203.4,186.5,204.8,186.5,206.3,186.4z"
	/>
<path class="st5" d="M198.1,125.5c-0.2,0.8-0.4,1.5-0.6,2.3c-0.7-1.2-1.4-2.4-2-3.6c0.3-1.3,1-1.6,2-0.6
	C197.2,124.4,197.9,124.8,198.1,125.5z"/>
<path class="st8" d="M201.9,186.6c0,0.5,0,0.9,0,1.4c-0.2,0-0.5,0.1-0.7,0.1c-0.6-0.3-1.2-0.5-1.9-0.8c0-0.8,0-1.5,0-2.3
	C200.3,185.2,201.2,185.7,201.9,186.6z"/>
<path class="st11" d="M186.7,219.9c0.9,1.5,2.5,0.9,3.7,1.2c24.6,5.9,49.2,12.2,73.6,19c5.2,1.5,9.7,0,13.9-2.7
	c1-0.1,1.8-0.5,2.6-1.1c3.2-0.8,3.3-0.8,3.5-2.6c0.7-2.1,0.7-4.3,0.9-6.5c1.2-4.9,1.2-4.9,6.3-5.2c2.7,0,5.1,1.6,7.9,1.4
	c0.6,0.7,1.4,0.6,2.1,0.7c0.2,0.1,0.5,0.3,0.7,0.4c0.6,0.1,1.2,0.2,1.7,0.2c0.6,0.3,1.3,0.7,1.9,1c0.2,0,0.5,0,0.7,0
	c0.6,0.1,1.2,0.3,1.8,0.4c0.5,0.4,1.1,0.5,1.7,0.3c0.2,0.4,0.3,0.8,0.5,1.2c-0.4,1.4-1.5,1.3-2.6,1.1c-0.6-0.4-1.4-0.8-1.8-0.2
	c-0.2,0.5,0.8,0.4,1.3,0.7c1.6,0.7,2.8,1.4,2.8,3.6c-0.2,12-0.1,24-0.2,35.9c-4.7,0.5-8.8-1.7-13.2-2.5c-0.8-0.5-1.6-1-2.4-1.3
	c-2.4-0.9-4.5-1.9-4.6-5c-0.1-1.3-1.1-2.2-2.5-2.5c-2.4-0.7-4.8-1.4-7.4-0.7c0.1-4.9-0.7-9.8,1.3-14.5c0.5-0.5,1.4-0.4,1.6-1.6
	c-1.9,0.5-3.8,1-5.6,1.5c-0.2,0-0.4,0.1-0.4,0.3c-4,1.1-8.1,1.5-12.2,0.7c-1.2-0.4-2.4-0.7-3.5-1c-1.3-0.4-2.7-1.2-3.9,0.4
	c-4.4-0.7-8.4-2.8-12.9-2.9c-0.2-1.1-1.3-1-2-1.2c-20.5-5.5-41-11-61.6-16.5c-0.2-0.1-0.4,0-0.6,0c-0.4-0.2-0.8-0.3-1.2-0.5
	c-0.8-0.3-2.1-0.2-1.9-1.6c0.2-1.4,1.5-1.3,2.5-1.2C181.7,219.1,184.2,219.5,186.7,219.9z M302.6,232.3c-3.5-1.4-4.3-1-4.3,2.1
	c-0.5,2.1-0.6,4.3,2.1,4.6C302.5,239.2,304,234.2,302.6,232.3z M298,242.6c-0.3-1.4-0.4-3.6-2.8-3.8c-1.2-0.1-2.9,0.9-2.6,2.5
	c0.3,1.7,0.5,4,3,4.2C297.3,245.6,298.1,244.8,298,242.6z M294.2,232.5c0.1-0.8,0-2.6-1.7-2.4c-2.4,0.2-2.7,2.6-3.2,4.5
	c-0.3,1.2,0.2,2.8,1.9,2.7C293.4,237,294.2,235.2,294.2,232.5z M299.9,252.7c-1.2-1.8-2.8-2.9-4.9-3.3
	C295.7,253,296.4,253.4,299.9,252.7z M304.3,227.7c-0.4,0.2-0.6,0.3-0.8,0.3c0.2,0.1,0.3,0.3,0.5,0.4c0.1,0,0.3-0.1,0.5-0.2
	C304.5,228,304.4,227.8,304.3,227.7z"/>
<path class="st5" d="M243.9,239.8c4.5,0.1,8.5,2.3,12.9,2.9c1.3,1.2,3.6,0.1,4.5,2.2c-4.4,0.6-8.3-1.4-12.5-2.2
	c-1.3-0.3-2.6-0.7-3.9-1.1C244.6,240.9,244.3,240.4,243.9,239.8z"/>
<path class="st11" d="M198.1,125.5c-0.2-0.6-1-1.1-0.6-1.9c4.3,1.7,5.1,5.7,6.1,9.5c0.3,1,0.2,2.1,0.3,3.1c0,5.5-0.4,10.9,0.2,16.4
	c0,7.2-0.1,14.4-0.1,21.6c0,1.4,0,2.7-1.3,3.6c-2.7-0.2-3.5-1.6-3.5-4.3c-0.1-14.8-0.3-29.6-0.5-44.4
	C198.7,127.9,199,126.6,198.1,125.5z"/>
<path class="st8" d="M204.1,152.6c-0.7-5.5-0.2-10.9-0.2-16.4c1,3.9,0.1,7.9,0.5,11.9C204.3,149.6,204.2,151.1,204.1,152.6z"/>
<path class="st4" d="M384.4,228c-0.2-0.1-0.5-0.2-0.7-0.3c-0.3-0.2-0.6-0.5-0.8-0.7c-1.1-3.9-0.5-4.8,2.9-4.7
	C387.3,224.7,386.8,226.5,384.4,228z"/>
<path class="st8" d="M388.9,366.3c0.1,0.3,0.2,0.6,0.2,0.9c0,0.3-0.1,0.6-0.2,1C388.1,367.5,388.6,366.9,388.9,366.3z"/>
<path class="st10" d="M217.6,334.4c-3.1,1.1-6.2,2.1-9.2,3.2c-0.2-0.2-0.4-0.4-0.6-0.5c0.1-1.3,0.2-2.5,0.2-3.8
	c0-12.8,0-25.6-0.1-38.4c2.6-0.8,5.5-1.1,7.8-2.8c0.7-0.5,2.8-1.5,0.2-2.5c0-13-0.1-26,0.1-39c0-3.2-2.1-3.9-4.4-4.9
	c0.1-0.3,0.3-0.6,0.4-0.8c3.5,0.7,7,1.2,10.4,2.1c1.9,0.5,4.4,0.1,5.5,2.4c1.2,23.7,0.3,47.5,0.6,71.3c-2.7,1-5.5,2-8.2,3
	c-1,0.4-2.4,0.7-1.5,2.4C218.4,328.9,218,331.7,217.6,334.4z"/>
<path class="st8" d="M228.4,320.7c-0.3-23.8,0.6-47.5-0.6-71.3c3.1,0,6,1.3,9,1.9c0,16.8,0,33.6-0.1,50.5c0,5.3,0,10.5-0.1,15.8
	C234.1,318.9,231.4,320.1,228.4,320.7z"/>
<path class="st8" d="M197.4,241.8c1.9,0.4,1.9,1.8,1.9,3.4c-0.1,13.9-0.1,27.7-0.2,41.6c0,5.1,0,5.1,5.2,4.8c0,0.4,0,0.9,0.1,1.3
	c-1.8,0-3.5,0-5.3,0c-1.3,0-2.3,0.3-2.2,1.9c-1.4,0-2.6-0.8-4-0.4c-1.5-1-1.2-2.5-1.1-3.9c0.8,0.2,1.7,0.4,2.5,0.6
	c0.8,0.6,1.8,1.5,2.8,0.8c0.8-0.5-0.2-1.5-0.1-2.3c0.1-0.7,0-1.5,0-2.2c0-14.8-0.2-29.6,0.5-44.3
	C197.4,242.6,197.4,242.2,197.4,241.8z"/>
<path class="st10" d="M279.7,256.9c-2.4,1.9-5.5,2.5-8.1,4c-2.6-2.4-1-5.2-0.8-7.9c0.1-2.2,0-4.3,0-6.5c0.7-1.4,2.1-1.6,3.3-2.1
	c0.9-0.4,2.4-0.1,2.4-1.7c0-0.2,0.2-0.3,0.4-0.3c1.3,1.9,2.7-0.1,4,0.1C278.9,247.1,279.8,252,279.7,256.9z"/>
<path class="st10" d="M261.3,244.9c-0.9-2-3.2-1-4.5-2.2c1.1-1.7,2.5-0.8,3.9-0.4c1.2,0.3,2.4,0.7,3.5,1c0.1,2.6,3,1.8,4,3.3
	c-0.7,2.9,0,5.8,0,8.7c0.1,2.4-1.1,2.4-2.7,1.4c-3.6-2.2-4.1-7-0.8-10.1C263.7,245.7,261.8,246.5,261.3,244.9z"/>
<path class="st2" d="M204.5,271.5c0-7.7,0.1-15.5,0.1-23.2c0-1.4,0-2.7-0.1-4.1c-0.2-1.9,0.8-0.7,1.4-0.6c0,7.7,0.1,15.4,0.1,23.1
	c-0.1,7.2-0.1,14.4-0.3,21.7c0,1.1,0.5,2.3-0.5,3.3c-0.1-4.5-0.1-9-0.2-13.4C204.9,276,205.6,273.7,204.5,271.5z"/>
<path class="st2" d="M197.4,241.8c0,0.4,0,0.8,0,1.2c-2.2,1.2-4.6,1.8-7,2.4c-1.7,0.8-2.8-1.3-4.4-1c-0.2-0.4-0.5-0.9-0.7-1.3
	c0-0.2,0.1-0.5,0.1-0.7c2.5-3,5.7-2.2,8.8-1.3C195.3,241.3,196.3,241.7,197.4,241.8z"/>
<path class="st10" d="M207.5,243.7c1.4,0.1,1.7,0.4,1.6,2.2c-0.3,3.4,0,6.8-0.1,10.2c-0.2,7.6-0.3,15.3,0.3,22.9
	c0.3,3.8-0.7,7.7,0.2,11.5c-0.7,2.1,2,0.2,1.8,1.6c-1,0.2-2,0.4-3,0.2c0-0.4-0.1-0.9-0.1-1.3c0.3-7.3,0.2-14.6,0-22
	c0-8.2,0.4-16.5-0.5-24.7C207.6,244.1,207.5,243.9,207.5,243.7z"/>
<path class="st0" d="M207.5,243.7c0,0.2,0.1,0.4,0.1,0.7c-1.1,0.9-0.6,2.1-0.6,3.2c-0.1,6.3,0.1,12.6,0,18.9
	c-0.1,5.6,0.4,11.3-0.3,16.9c-0.6-1.2-0.4-2.5-0.5-3.7c-0.1-4.3,0.3-8.6-0.3-12.9c0-7.7-0.1-15.4-0.1-23.1
	C206.4,243.7,206.9,243.7,207.5,243.7z"/>
<path class="st5" d="M268.2,246.6c-1-1.5-3.9-0.8-4-3.3c4.1,0.8,8.2,0.4,12.2-0.7c0,1.7-1.5,1.3-2.4,1.7c-1.2,0.5-2.6,0.7-3.3,2.1
	C269.9,246.5,269.1,246.6,268.2,246.6z"/>
<path class="st2" d="M208.2,292.3c1,0.3,2,0.1,3-0.2c0.2-1.4-2.5,0.5-1.8-1.6c2.2,0.3,4.3,0.1,6.4-0.9c2.6,1,0.5,1.9-0.2,2.5
	c-2.3,1.7-5.1,2.1-7.8,2.8C207.6,294,207.6,293.1,208.2,292.3z"/>
<path class="st0" d="M167.7,229.4c-0.2,1.3-0.2,2.9-2.2,2.7c-1.8-0.2-2.2-1.6-2.1-3.2c0.1-1.2,0.3-2.4,1.9-2.1
	C166.7,227.1,168,227.5,167.7,229.4z"/>
<path class="st5" d="M204.5,271.5c1.1,2.2,0.4,4.5,0.4,6.8c0.2,4.5,0.2,9,0.2,13.4c0,0.6,0,1.2,0,1.8c-0.3-0.2-0.5-0.4-0.8-0.6
	c0-0.4,0-0.9-0.1-1.3C204.4,284.9,204.5,278.2,204.5,271.5z"/>
<path class="st8" d="M129.2,301.8c0-0.6,0.1-1.3,0.1-1.9c5.7,0.4,11,2.7,16.5,3.9c1.4,0.3,0.9,1.7,1,2.6c0.1,1.3-0.3,2.3-1.8,2.3
	c-0.7-0.1-1.9-0.1-2.1-0.5c-1.8-3.3-5.3-2.6-8-3.9c-1.8-0.9-4-0.5-5.7-1.6C129.2,302.4,129.2,302.1,129.2,301.8z"/>
<path class="st5" d="M129.2,302.7c1.7,1.2,3.9,0.7,5.7,1.6c2.7,1.3,6.2,0.6,8,3.9c0.2,0.4,1.4,0.3,2.1,0.5c-0.8,1.5-2.7,1.9-3,3.8
	c-2.1-3.2-5.8-3.5-9-4.6c-0.5-0.4-0.9-0.7-1.4-1.1c0-0.8-0.3-1.2-1.1-1c-0.2-0.1-0.5-0.1-0.7-0.2C129.5,304.7,128,303.9,129.2,302.7
	z"/>
<path class="st8" d="M146.9,326c-0.1,2-0.6,3.5-2.5,3.3c-2.1-0.2-4.3-0.8-4.4-3.6c0-1.7,0.7-3.1,2.5-2.9
	C144.6,323,146.8,323.5,146.9,326z"/>
<path class="st0" d="M131.5,313.9c1.6,0.4,3.4,0.8,3.8,3c0.1,0.6-0.5,1.3-0.9,0.8c-1.4-1.4-4.4,0.5-5-2.3
	C129.2,314.3,130.3,313.9,131.5,313.9z"/>
<path class="st0" d="M131.5,306.9c0.5,0.4,0.9,0.7,1.4,1.1c-0.1,1.3,1.6,1.8,1.3,3.2c-5.5-0.8-5.5-0.9-4.6-5.5
	c0.2,0.1,0.5,0.1,0.7,0.2C130.6,306.4,131,306.7,131.5,306.9z"/>
<path class="st8" d="M134.2,311.1c0.3-1.4-1.4-1.9-1.3-3.2c3.2,1.1,6.9,1.4,9,4.6C139.4,312.1,136.8,311.6,134.2,311.1z"/>
<path class="st8" d="M132.2,323.2c-1.2,0-2.3,0-2.3-1.5c0-0.6,0-1.4,0.9-1.2c1.1,0.3,2.8,0.3,3.1,1.7
	C134.1,323.5,132.8,323.1,132.2,323.2z"/>
<path class="st7" d="M137.4,289.7c-1,2.5-1.8,5.1-5.4,4.2c-2.1-0.5-3.7-4.9-2.3-6.5c0.5-0.6,1-0.4,1.7-0.2
	C133.4,288.1,135.4,288.9,137.4,289.7z"/>
<path class="st4" d="M363.7,402.9c0.6,0.5,0.8,1.1,0.3,1.8C363.5,404.2,363.7,403.5,363.7,402.9
	C363.8,402.9,363.7,402.9,363.7,402.9z"/>
<path class="st11" d="M190.4,245.4c2.4-0.6,4.8-1.2,7-2.4c-0.7,14.8-0.5,29.5-0.5,44.3c0,0.7,0.1,1.5,0,2.2
	c-0.1,0.8,0.9,1.8,0.1,2.3c-1,0.7-1.9-0.2-2.8-0.8c0-13.8,0-27.5-0.2-41.3c0-1,0-2.3-1.8-3.8c0.6,15.3-0.9,29.9-0.5,44.5
	c-0.1,1.4-0.4,2.9,1.1,3.9c-0.9,0.6-0.7,1.5-0.7,2.5c0.2,3.8,0.3,7.6,0.1,11.3c-0.7,11.8-1,23.6-1.1,35.4l0,0
	c-1-1.2-0.6-2.6-0.6-3.9c0-22.6-0.1-45.2,0-67.9c0-2-0.2-3.9-1.3-5.7c-1.3-2.2-1.6-4.3,0.3-6.9c2.2-3.1,0.9-7.1,0.7-10.7
	C190.2,247.4,190,246.4,190.4,245.4z"/>
<path class="st7" d="M185.3,243.1c0.2,0.4,0.5,0.9,0.7,1.3c0.6,1.4,1.4,2.8-1,3.2c-1.9,0.4-2.4-1-2.6-2.3
	C181.9,242.7,183.9,243.2,185.3,243.1z"/>
<path class="st3" d="M352.1,345.6c3.8,0.3,7.6,0.6,11,2.7c-8.5,3.5-17,7-25.9,9.2c-0.2-1.1-0.8-1.1-1.8-1c-2,0.2-4.1,0.1-6.2,0.2
	c-1.3,0-2.2-0.3-2.2-1.9c4.2-1.5,8.4-3,12.7-4.5c2.7-0.9,5.4-1.6,7.9-2.6C349.2,347.2,351.2,347.5,352.1,345.6z"/>
<polygon class="st11" points="367.8,353.1 367.9,353.3 367.7,353.3 "/>
<path class="st8" d="M339.7,350.5c-4.2,1.5-8.4,3-12.7,4.5c-11.2,3.2-22.2,7.1-33.1,11.1c-6.8,2.5-13.2,3.6-19.9,0.6
	c-1.8-0.8-3.8-1-5.8-1.5c-8.3-2.5-16.7-4.7-25.2-6.6c-2.8-0.6-5.4-2-8.3-2.5c-5.9-1.8-11.9-3.6-17.8-5.5c0.2-1.1,0.9-1.9,1.9-2.3
	c3-0.9,5.8-2.2,8.9-3c5.1-1.2,10.1-2.9,15.2-4.4c0.8,0.1,1.7,0.2,2.5,0.3c0.2,0.9,1.1,0.9,1.8,1c7,1.9,13.9,3.9,21,5.6
	c4.6,1.1,9,2.9,13.8,3.2c2.1,0.5,4.1-0.4,6-1.1c11.8-3.8,23.3-8.5,35.3-11.6c1.8,0.5,3.6,0.9,5.4,1.4c-0.4,2.1,1.4,2.7,2.6,3.8
	C334,346.1,337.6,347.4,339.7,350.5z"/>
<path class="st2" d="M282,351.2c-4.8-0.3-9.2-2-13.8-3.2c-7-1.8-14-3.8-21-5.6c-0.7-0.2-1.5-0.1-1.8-1c-0.1-1.6-2.4-1.1-2.6-2.6
	c0.5-0.9,2.1-0.8,1.9-2.1c-0.1-0.7-0.7-1.2-1.3-1.1c-1.6,0.2-2.5,1.1-1.7,2.8c-1.4,0.3-2.7,0-4-0.4c-2.7-0.8-5.3-1.7-8.2-1.9
	c-1.1,0-2.1,0-3.2,0c-3-0.5-6-1-8.9-1.5c0.4-2.8,0.8-5.5,1.2-8.3c8.7,2.8,17.7,4.6,26.6,6.8c12.3,3,24.6,6.3,36.7,10
	C282.3,345.7,282.3,348.4,282,351.2z"/>
<path class="st11" d="M197.4,341.5c-0.4,0.1-0.7,0.1-1.1,0.2c-0.9-0.8-0.7-1.9-0.8-2.9c-0.4-13.7,0.6-27.3,0.6-41c0-1,0-1.9,0.9-2.6
	c1.2,0.2,2.5,0.5,3.7,0.5c2.6,0,3.5,1.2,3.4,3.9c-0.2,4.8-0.1,9.6-0.1,14.4c0.1,8.2,0.2,16.3,0.3,24.5c-1.4,1.4-3.3,1.5-5,2.3
	c0.2-12.2-0.5-24.4,0.4-36.6c0.1-2-0.3-4-0.5-5.9c0-0.5-0.1-1.1-0.8-1.2c-0.9-0.1-1,0.6-1,1.2c-0.1,0.6,0,1.3,0,1.9
	C197.4,313.9,197.4,327.7,197.4,341.5z"/>
<path class="st10" d="M197.1,295.2c-0.9,0.7-0.9,1.6-0.9,2.6c0,13.7-1,27.3-0.6,41c0,1-0.2,2.1,0.8,2.9c-1.5,1.2-3.4,1.4-5.2,1.9
	c0.1-11.8,0.4-23.6,1.1-35.4c0.2-3.8,0.1-7.5-0.1-11.3c0-1-0.2-1.8,0.7-2.5c1.4-0.4,2.6,0.5,4,0.4C197,294.9,197,295,197.1,295.2z"
	/>
<path class="st2" d="M243,341c-5.1,1.5-10.1,3.1-15.2,4.4c-3.1,0.7-5.9,2.1-8.9,3c-1.1,0.3-1.7,1.1-1.9,2.3
	c-3.1-0.9-6.2-1.8-9.3-2.7c0.1-0.5,0.3-1,0.4-1.4c0.9-0.4,1.8-0.7,2.7-1.1c0.4,0,0.8,0,1.3,0c5.9-0.9,11.5-3.1,17.2-4.7
	C234,339.5,238.4,339.4,243,341z"/>
<path class="st2" d="M197.1,295.2c-0.1-0.1-0.1-0.3-0.2-0.4c-0.1-1.6,0.9-1.9,2.2-1.9c1.8,0,3.5,0,5.3,0c0.3,0.2,0.5,0.4,0.8,0.6
	c0.4-0.1,0.8-0.2,1.2-0.3c0.1,0.1,0.3,0.1,0.4,0.1c0,7.2,0,14.4,0.1,21.6c-0.8-1.1-0.5-2.4-0.5-3.7c0-5,0-10.1,0-15.1
	c-0.2,0-0.4,0-0.7,0c0,14,0,28,0,42.1c-0.4,0-0.9,0-1.3,0.1c-0.1-8.2-0.2-16.3-0.3-24.5c0-4.8-0.2-9.6,0.1-14.4
	c0.1-2.7-0.8-3.8-3.4-3.9C199.6,295.6,198.3,295.3,197.1,295.2z"/>
<path class="st10" d="M197.4,341.5c0-13.8,0-27.6,0-41.4c0-0.6,0-1.3,0-1.9c0.1-0.6,0.2-1.3,1-1.2c0.7,0.1,0.7,0.7,0.8,1.2
	c0.2,2,0.6,4,0.5,5.9c-0.9,12.2-0.2,24.4-0.4,36.6C198.8,341,198.1,341.2,197.4,341.5z"/>
<path class="st5" d="M243,341c-4.6-1.7-9-1.6-13.8-0.3c-5.7,1.6-11.3,3.8-17.2,4.7c0.4-0.5,0.8-0.9,1.2-1.4c2.6-0.6,4.7-2.6,7.4-2.6
	c0.8,0.1,1.3-0.2,1.5-1c0.6-0.1,1.1-0.1,1.7-0.2c2.9,0,4.9-1.4,5.8-4.2c2.8,0.2,5.5,1.1,8.2,1.9c1.3,0.4,2.6,0.7,4,0.4
	c0.4,0.1,0.7,0.3,1.1,0.4c0.2,1.5,2.5,1,2.6,2.6C244.7,341.2,243.8,341.1,243,341z"/>
<path class="st8" d="M205.7,338.4c0-14,0-28,0-42.1c0.2,0,0.4,0,0.7,0c0,5,0,10.1,0,15.1c0,1.2-0.3,2.5,0.5,3.7
	c0.1,7.3,0.1,14.7,0.2,22c0,0.3,0,0.5-0.1,0.8C206.7,338.3,206.2,338.5,205.7,338.4z"/>
<path class="st12" d="M203.8,346.7c0,2.3-3.7,2-3.2,4.6c-2.3-0.2-4.4-0.9-6.4-2C197.4,348.4,200.6,347.5,203.8,346.7z"/>
<path class="st9" d="M229.7,336c-0.9,2.8-2.9,4.1-5.8,4.2c0.7-1.5,3.1-2,2.7-4.2C227.6,336,228.6,336,229.7,336z"/>
<path class="st5" d="M208,346.5c-0.1,0.5-0.3,1-0.4,1.4c-0.2,0-0.5,0.1-0.7,0.1c-0.8-0.1-1.2-0.6-1.3-1.4
	C206.4,346.6,207.2,346.5,208,346.5z"/>
<path class="st9" d="M213.2,344.1c-0.4,0.5-0.8,0.9-1.2,1.4c-0.4,0-0.8,0-1.3,0C211,343.8,212.2,344.2,213.2,344.1z"/>
<path class="st9" d="M222.1,340.4c-0.2,0.8-0.6,1.2-1.5,1C220.9,340.8,221.4,340.4,222.1,340.4z"/>
<path class="st2" d="M207,337.9c0-0.3,0-0.5,0.1-0.8c0.2,0,0.4,0,0.6,0c0.2,0.2,0.4,0.4,0.6,0.5C207.9,337.7,207.4,337.8,207,337.9z
	"/>
<path class="st8" d="M338,243.1c-1.9,3.8-5.4,2.3-8.3,2.4c-0.7-2.4-3.1-2.7-4.8-3.7c0.3-1,2.1-0.9,1.3-2.2c-0.4-0.8-1.3-1-2.1-1.1
	c-1-0.1-1.5,0.6-2,1.3c-1.5,0.3-2.8,0.8-3.3,2.4c-0.3,0.6-1.5,1.3,0.1,1.7c3.2,0.8,3.5,3.3,3.7,6c-2,1.5-2,3.1,0.1,4.5
	c-0.2,1.3,0.4,2.5,0.9,3.6c0.7,1.9,1.9,3.8,1.4,6c-4.5,2.4-9.5,3.2-14.2,4.8c-0.3,0-0.6,0-1,0c0-12,0-24,0.2-35.9
	c0-2.2-1.2-2.9-2.8-3.6c0.2-0.2,0.3-0.4,0.5-0.5c1.1,0.2,2.2,0.3,2.6-1.1c3,0.6,5.5-1.2,8.1-1.9c3.6-1,7.1-2.1,10.6-3.1
	c-4.7-0.7-9.1,0.3-13.4,1.9c-1.9,0.7-3.7,2-5.9,1.9c-0.6,0.1-1.2,0.1-1.7-0.3c1.9-2.7,5.1-3,7.8-4.2c2.6-1.2,5.7-0.9,8.5-2.4
	c-1.5-1.4-3.8,0.3-4.3-2.1c0.8-1,2.1-1.1,3.2-1.4c4.2,0.1,6,3,7.5,6.2c0.3,0.5,0.6,0.9,1.2,0.9c3.6,0.2,6.9-1,10.2-2.5
	c0.8-0.4,0.8-1.2,0.8-1.9c0-0.2,0-0.5,0.1-0.7c1.7,0.8,3.4,1.6,5.1,2.4c-0.5,2.3-1,2.7-5.6,4c-3.2-0.2-6.2,0.5-9.2,1.6
	c-1.8,0.7-2.7,2.3-1,3.6c3.1,2.4,3.2,5.6,3.2,9C335.5,240.8,336,242.4,338,243.1z M315,261.6c0,1.1,0,2.2,1.5,2.2
	c1.3-0.1,1.7-1,1.7-2.2c0-1.2-0.4-2.1-1.7-2.2C315,259.4,315,260.6,315,261.6z"/>
<path class="st10" d="M242.3,203.2c0.3-1.1,0.5-2.1,0.8-3.2c5.4,1.8,10.3,4.9,15.9,6.5c2.4,0.7,4.7,2,7.3,1.8
	c3.6,0.8,1.9-2.2,2.7-3.5c0.8-1,2.5-1.8,2.9-1.2c2.2,3,4,0.3,5.9-0.2c2.5-0.5,5-0.9,7.6-1.4c-0.2,2.1,1,2.9,2.9,3.2
	c1.2,0.2,2.4,0.5,3.6,0.7c-1.5,3-3.3,5.6-6.9,6.2c-0.1-1.1-0.3-2.2,0.1-3.2c1.7-0.9,1.4-1.9,0.2-3c-1.5,0.3-1.4,1.6-1.3,2.6
	c0.2,1.2-0.1,1.9-1.2,2.4c-1.9,0-3.9-0.4-5,1.8c-0.4-0.1-0.7-0.1-1.1-0.2c-0.4-0.1-0.5,0-0.4,0.4c-0.3,0.6-0.7,1.2-1,1.9
	c-5.7,2.9-11.1,1-16.4-1.3c-0.3-2.2,0.6-2.8,2.8-2.2c1.5,0.5,3.1,0.7,4.6,0.9c0.6,0.1,1.3-0.2,1.3-1c0-0.9-0.6-1.4-1.4-1.2
	c-1.2,0.3-2.2,0.3-3.4,0C255.7,208,248.9,205.7,242.3,203.2z"/>
<path class="st8" d="M296.7,206.9c0.3,1.4,0.3,2.7-0.4,4c-4,0.5-7.6,1.9-9.8,5.5c-0.6,0.2-1.2,0.5-1.7,0.7c-0.3-1.7-0.3-3.5,0-5.2
	c3.6-0.6,5.5-3.2,6.9-6.2C293.5,205.5,295.2,205.6,296.7,206.9z"/>
<path class="st10" d="M382.8,227c0.3,0.2,0.6,0.5,0.8,0.7C383.2,227.6,382.9,227.4,382.8,227z"/>
<path class="st2" d="M268.8,204.6c-0.7,1.3,0.9,4.4-2.7,3.5c-0.3-1.4-0.6-2.9-0.4-4.4c0,0,0.2,0.1,0.2,0.1l0.2,0
	C266.5,206.1,267.8,204.8,268.8,204.6z"/>
<path class="st2" d="M265,199c0.5,0.3,1,0.7,1.5,1c-0.6,0.7-0.9,1.6-0.9,2.5c-0.1-0.1-0.2-0.1-0.4-0.1
	C265.3,201.3,264.5,200.2,265,199z"/>
<path class="st8" d="M265.3,202.5c0.1,0,0.3,0,0.4,0.1c0.5,0.3,0.6,0.8,0.5,1.3l-0.2,0c0,0-0.2-0.1-0.2-0.1
	C265.2,203.5,265.2,203,265.3,202.5z"/>
<path class="st10" d="M250,200c-0.1,0.2-0.2,0.5-0.3,0.7c-0.1-0.1-0.2-0.1-0.2-0.2C249.6,200.4,249.8,200.2,250,200
	C249.9,200,250,200,250,200z"/>
<path class="st11" d="M266.1,203.8c0.1-0.5,0-1-0.5-1.3c0-0.9,0.2-1.8,0.9-2.5c3.2-0.1,5.9-2,9-2.6c2.9-0.6,3.3-0.2,2.8,2.7
	c-0.2,1-0.4,2-0.6,3.1c-1.9,0.5-3.6,3.2-5.9,0.2c-0.4-0.5-2.1,0.3-2.9,1.2C267.8,204.8,266.5,206.1,266.1,203.8z"/>
<path class="st10" d="M256.8,176.6c0.8-0.7,1.8-0.5,2.7-0.5c2.6,0.1,4.2,1,3.4,4c-0.2,0.9-0.2,1.8-0.3,2.8c-1.3,0.1-2.7,0.1-3.9-0.4
	C259.3,180.1,258.6,178.2,256.8,176.6z"/>
<path class="st8" d="M256.8,176.6c1.8,1.6,2.5,3.5,1.9,5.9c-1.9,0.4-1,1.8-1.1,2.9c-0.4,0-0.8,0.1-1.1,0.1
	C256.5,182.5,255.9,179.5,256.8,176.6z"/>
<path class="st10" d="M201.2,188.1c0.2,0,0.5-0.1,0.7-0.1c4,1.9,8.4,2.1,12.6,3.2c3.5,1.2,7,2.4,10.8,2.3c1.2,6.1,0.5,12.3,0.4,18.5
	c0,0.8-0.2,1.7-0.3,2.5c-0.5,0.1-1.2,0.3-1.2,0.9c-0.2,3.4-2.1,3.2-4.6,2.5c-3.2-0.9-6.6-1.4-9.8-2.3c-1.3-0.4-2.5-0.3-3.6,0.3
	c-0.8-0.2-1.5-0.4-2.3-0.6c-1.8-0.2-3.3-1.6-5.2-1.3l0,0c-0.9-0.9-3.7-1.7,0-2.7c2.1-0.6,2.7-2.7,2.4-4.4
	C199.9,200.6,201.3,194.3,201.2,188.1z M208.7,200.4c0-1.7-0.6-3.1-2.2-3.2c-1.6-0.1-2.4,1.4-2.3,2.7c0.1,1.4,0.9,3.1,2.6,3
	C208.2,203,208.6,201.5,208.7,200.4z"/>
<path class="st11" d="M206.2,215.8c1.2-0.6,2.3-0.7,3.6-0.3c3.2,0.9,6.6,1.4,9.8,2.3c2.5,0.7,4.4,0.9,4.6-2.5c0-0.6,0.7-0.7,1.2-0.9
	c0.1,4.9,0.1,4.9,6.7,7.1c1.1,0.4,2.2,0.5,3.3,0.7c2.2,1.6,6.9,1.6,8.8-0.1c1.9-0.7,3.8-1.4,5.7-2.1c1.3-0.2,2.5-0.4,3.8-0.6
	c1.8-0.1,2.6,0.7,2.6,2.6c-0.1,4.8,0,9.6,0,14.4c-15.5-4-31-8-46.6-11.9c-0.9-0.2-1.8-0.4-2.8-0.6c-0.3-1.7-0.6-3.5-0.9-5.2
	C206.1,217.8,206.1,216.8,206.2,215.8z"/>
<path class="st4" d="M249.9,220.1c-1.9,0.7-3.8,1.4-5.7,2.1c-1.9-0.3-3.7,1.2-5.6,0c1.4-0.6,1.1-1.9,1.1-3c0-3.7,0.1-7.3,0-11
	c-0.1-1.9,0.7-2.7,2.6-2.5c1.3,0.5,2.5,0.9,3.8,1.4c0.2,0.3,0.4,0.5,0.7,0.3c0,0,0.1,0,0.1,0c1.2,2.9,0.7,6.1,2.2,9
	C249.7,217.4,251,218.6,249.9,220.1z"/>
<path class="st11" d="M246.1,207.1c-1.3-0.5-2.5-0.9-3.8-1.4c-0.5-0.8-2.4-1.7,0-2.5c6.7,2.5,13.4,4.9,20.3,6.6
	c1.2,0.3,2.3,0.2,3.4,0c0.9-0.2,1.4,0.3,1.4,1.2c0,0.8-0.7,1.1-1.3,1c-1.6-0.2-3.1-0.4-4.6-0.9c-2.1-0.7-3,0-2.8,2.2
	c0,0.4-0.1,0.9-0.1,1.3c-0.5,0.1-0.5,1.6-1,0.9c-1.1-1.7-3.2-3-3.1-5.4c-2.4-1.4-5-2.1-7.7-2.6c0,0-0.1,0-0.1,0
	C246.7,207.1,246.4,207,246.1,207.1z"/>
<path class="st11" d="M215.3,189.7c-0.2-2.1,0-3.5,2.8-2.5c1.7,0.6,3.6,0.6,5.4,0.8c0.6,0,1.2,0,1.7,0c0,1.1,0.1,2.3,0.1,3.4
	C222.1,190.2,218.8,189.5,215.3,189.7z"/>
<path class="st8" d="M215.3,189.7c3.5-0.3,6.8,0.5,10,1.7c0,0.7,0,1.4,0,2.1c-3.8,0.1-7.3-1.1-10.8-2.3
	C214.8,190.7,215,190.2,215.3,189.7z"/>
<path class="st10" d="M238.6,222.2c1.9,1.1,3.7-0.3,5.6,0c-1.9,1.7-6.6,1.7-8.8,0.1C236.5,222.2,237.5,222.2,238.6,222.2z"/>
<path class="st10" d="M206.1,218.7c0.3,1.7,0.6,3.5,0.9,5.2c-4.6-1-9.1-2.1-13.7-3c-1.6-0.3-3.1-0.4-1.6-2.7
	c0.4-0.7,0.2-1.8,0.2-2.8c2-1.9,4.5-1.5,6.8-1.5c0,0,0,0,0,0c2.8,2.5-1.6,1.4-1.4,2.9c2.4-0.4,3.9,1.7,6.1,2.2
	C204.4,218.9,205.2,218.8,206.1,218.7z"/>
<path class="st0" d="M258.6,214.6c0-0.4,0.1-0.9,0.1-1.3c5.3,2.4,10.7,4.2,16.4,1.3c-0.2,6.8-0.4,13.7-0.5,20.5
	c-0.9,0.4-1.8,0.7-2.7,1.1c-1.2,0-2.4-0.6-3.4,0.4c-0.3,0.3-0.5,0.6-0.8,0.9c-1.1,1.1-2.4,1.1-3.8,1.1c-1.9-0.7-3.9-1.3-5.8-2
	C258.4,229.3,257.9,221.9,258.6,214.6z"/>
<path class="st10" d="M258.6,214.6c-0.7,7.4-0.2,14.7-0.5,22.1c-0.6-0.1-1.2-0.1-1.8-0.2c0-4.8-0.1-9.6,0-14.4
	c0-1.9-0.7-2.7-2.6-2.6c1.8-1.3,1.3-3.1,1.1-4.8c-0.2-1.5-0.6-3.1-0.2-4.6c-0.1,2.4,2,3.7,3.1,5.4
	C258.1,216.1,258.1,214.7,258.6,214.6z"/>
<path class="st8" d="M263.9,238.7c1.4,0,2.7,0,3.8-1.1c1.9,1.2,3.8-0.4,5.7-0.1C270.5,239.9,267.4,240.5,263.9,238.7z"/>
<path class="st10" d="M273.4,237.4c-1.9-0.3-3.8,1.3-5.7,0.1c0.3-0.3,0.5-0.6,0.8-0.9c1.1,0,2.3,0.3,3.4-0.4
	c0.9-0.4,1.8-0.7,2.7-1.1c0.2,0.1,0.4,0.2,0.6,0.3c0.1,0.2,0.1,0.5,0.2,0.7C274.7,236.5,274.1,237,273.4,237.4z"/>
<path class="st8" d="M280.5,236.2c-0.8,0.6-1.6,1-2.6,1.1c-0.9-0.1-1.8-0.1-2.2-1.2c0,0,0.1-0.1,0.1-0.1
	C277.4,236.1,279,236.2,280.5,236.2z"/>
<path class="st8" d="M275.4,236.1c-0.1-0.2-0.1-0.5-0.2-0.7c0.3,0,0.6,0,0.9-0.1c-0.1,0.2-0.2,0.5-0.3,0.7c0,0-0.1,0.1-0.1,0.1
	C275.7,236.2,275.4,236.1,275.4,236.1z"/>
<path class="st4" d="M309.8,268.9c0.3,0,0.6,0,1,0c1.3,1.7,3.2,1.1,4.9,1.4c6.3,1.1,12.5,2.7,14.9,9.6c1.4,4.2,2,8.6-1.6,12.3
	c0.1-0.8,0.1-1.6,0.2-2.4c-3.1,5.1-8.3,7.7-12.2,11.6c-1.2,1.2-2.3,2.5-3.5,3.8c0.7-5.9,5.2-10.7,3.8-17c-1.3-5.8-8-12.3-11.8-10.9
	c3.8,3.5,5.7,7.9,7,12.5c0.7,2.5,1.7,5.3,0.4,8c-1.1,2.3-3.7,1.3-5.6,2c-2.6,1-5.1,1.7-6.3,4.9c-1.1,3.1-3.2,5.8-5.7,8.2
	c-1.7,1.6-3,1.8-4.3-0.3c-1.1-1.7-2.3-3.2-4.3-3.9c0.5-0.2,1.1-0.4,1.6-0.6c-0.7-0.4-1.3-0.8-2-1.2c2.4-4.9,2.3-9.7-0.6-14.4
	c-3.1-5-10.2-8.2-15.9-6.9c-1.3,0.3-4.1,0.2-2.6,2.9c1.7,3.1,3.4,6.3,5.6,9.1c1.4,1.8,3.1,2.5,5.2,1.4c1.6-0.8,3.3-1.5,4.9-2.3
	c-1.6,2.6-3.9,4.1-6.5,5.1c-3.3,1.2-6.2,1-8.9-1.8c-4.1-4.4-8-8.9-11.9-13.5c4.6-1,5.4-1.8,5.7-6c0-0.5,0.3-1,0.4-1.5
	c1.1-0.5,2.2-0.9,3.2-1.4c6.2-0.3,12.1,0.5,17.8,3.5c2.8,1.4,6.6,0.9,9.7-0.1c-3-2.6-9.3-1.4-8.3-8c-0.1,0-0.2,0-0.3,0
	c-0.1,0-0.1,0.2-0.2,0.2c-0.1,0.1-0.1,0.1-0.2,0.2c-4.3-0.1-8.5,0-12.7-0.8c-1.2-0.2-1.9-0.6-2.1-1.9c-0.2-1.6,0.8-2,2.1-2.2
	c-0.8-0.1-1.6-0.2-2.5-0.3c1.2-0.9,2.6-0.5,3.9-0.6c8-0.5,16.1-0.9,24.1-1.3C301,267.2,305.1,269.4,309.8,268.9z M318.4,276
	c-3.2-0.1-3.7,0.6-2.7,3.7c1.9,5.7,2.4,6,8.3,4.9c2-0.4,2.6-1.4,2.4-3.3C325.9,277.8,323.4,276.1,318.4,276z"/>
<path class="st4" d="M276.1,235.4c-0.3,0-0.6,0-0.9,0.1c-0.2-0.1-0.4-0.2-0.6-0.3c0.2-6.8,0.4-13.7,0.5-20.5c0.3-0.6,0.7-1.2,1-1.9
	c0.2,0,0.4-0.2,0.4-0.4c0.4,0.1,0.7,0.1,1.1,0.2c-1.4,6.1-0.1,12.4-1.3,18.5c1.2-0.7,2-1.4,3.2-1.5c2.4-0.3,3.2-1.6,3.2-4.1
	c-0.2-4.9-0.1-9.8-0.1-14.8c1.1-0.5,1.3-1.2,1.2-2.4c-0.1-0.9-0.3-2.3,1.3-2.6c-0.4,1-0.4,2-0.3,3c-0.4,1.1-0.2,2.2-0.1,3.2
	c-0.2,1.7-0.3,3.5,0,5.2c-0.1,3.4-0.3,6.7,0.1,10.1c-0.2,2.2-0.1,4.4-0.9,6.5C281.5,234.5,278.9,235.7,276.1,235.4z"/>
<path class="st8" d="M296.2,211.9c0.4,1.6,1.1,3.2-0.4,4.9c1.1-0.1,2-0.2,2.8-0.3c1.3,2.2,3.3,1.1,5,0.9c3-0.3,5.7-1.9,8.8-1.9
	c-0.3,2,0.6,3.5,2,4.8c-1.4,1.2-2.8,2.4-4.8,2.5c-0.5-0.7-1-1.5-1.6-2.2c0-2.6-0.8-3.6-3.1-1.6c-3.4,0.1-7-1-9.6,2.2
	c2,2.4,5,0,7.1,1.6c-0.2,0.6-0.4,1.1-0.6,1.7c-0.2-0.1-0.5-0.3-0.7-0.4c-0.5-0.8-1.4-0.6-2.1-0.7c-2.7,0.2-5.2-1.4-7.9-1.4
	c-0.2-2,0.9-3.3,2.4-4.3c1.7-1.2,1.6-2.3-0.3-3.1C294,213.4,295.1,212.6,296.2,211.9z"/>
<path class="st10" d="M293.2,214.5c1.9,0.9,2,1.9,0.3,3.1c-1.5,1.1-2.6,2.3-2.4,4.3c-5,0.3-5,0.3-6.3,5.2c-0.4-3.4-0.2-6.7-0.1-10.1
	c0.6-0.2,1.2-0.5,1.7-0.7C289.1,216.9,291,215.2,293.2,214.5z"/>
<path class="st2" d="M309.6,222.8c2-0.1,3.4-1.3,4.8-2.5c1.8-0.6,3.8-0.8,4.8-2.7c0.3,0,0.6,0,0.9,0c0.5,2.4,2.8,0.7,4.3,2.1
	c-2.8,1.5-5.9,1.2-8.5,2.4c-2.7,1.2-5.9,1.5-7.8,4.2c-0.6-0.1-1.2-0.3-1.8-0.4c0-0.3,0.6-0.8-0.1-0.9c-0.1,0-0.4,0.6-0.6,0.9
	c-0.6-0.3-1.3-0.7-1.9-1c0,0,0.1-0.1,0.1-0.1c0.7-0.1,1.2-0.4,1.3-1.2C306.5,223.1,308.5,225.6,309.6,222.8z"/>
<path class="st2" d="M309.8,226.6c2.2,0.1,4-1.2,5.9-1.9c4.3-1.6,8.6-2.6,13.4-1.9c-3.5,1.1-7,2.2-10.6,3.1
	c-2.7,0.7-5.1,2.5-8.1,1.9C310.1,227.3,309.9,227,309.8,226.6z"/>
<path class="st10" d="M298,242.6c0.1,2.2-0.8,3-2.4,2.9c-2.6-0.2-2.7-2.5-3-4.2c-0.3-1.6,1.4-2.6,2.6-2.5
	C297.6,239,297.8,241.2,298,242.6z"/>
<path class="st10" d="M294.2,232.5c0,2.8-0.8,4.5-3.1,4.7c-1.6,0.1-2.2-1.4-1.9-2.7c0.4-1.9,0.8-4.3,3.2-4.5
	C294.3,229.9,294.3,231.7,294.2,232.5z"/>
<path class="st10" d="M302.6,232.3c1.4,1.9-0.1,6.9-2.2,6.7c-2.7-0.3-2.6-2.5-2.1-4.6c1,0.5,2.8,1.1,2.5-0.5
	C300.3,231.4,301.7,232.4,302.6,232.3z"/>
<path class="st5" d="M299.9,252.7c-3.4,0.7-4.1,0.2-4.9-3.3C297.1,249.8,298.6,250.9,299.9,252.7z"/>
<path class="st5" d="M302.6,232.3c-0.9,0.1-2.3-0.8-1.8,1.6c0.3,1.6-1.5,1-2.5,0.5C298.3,231.2,299.1,230.8,302.6,232.3z"/>
<path class="st0" d="M276.1,235.4c2.8,0.4,5.4-0.8,7.9-1.7c-0.3,1.8-0.3,1.8-3.5,2.6c-1.6-0.1-3.1-0.1-4.7-0.2
	C275.9,235.8,276,235.6,276.1,235.4z"/>
<path class="st2" d="M280.9,242.4c-1.3-0.2-2.7,1.8-4-0.1c1.8-0.5,3.7-1,5.6-1.5C282.4,241.9,281.4,241.9,280.9,242.4z"/>
<path class="st2" d="M301.9,224.5c0.2-0.6,0.4-1.1,0.6-1.7c0.4,0,0.8,0,1.2,0.1c0,0.6,0,1.2,0.1,1.8c0,0-0.1,0.1-0.1,0.1
	C303,224.7,302.4,224.6,301.9,224.5z"/>
<path class="st8" d="M305.5,225.8c0.2-0.3,0.5-0.9,0.6-0.9c0.7,0.1,0.1,0.6,0.1,0.9C306,225.8,305.8,225.8,305.5,225.8z"/>
<path class="st2" d="M299,223.4c0.8,0,1.6-0.1,2.1,0.7C300.4,224,299.6,224.1,299,223.4z"/>
<path class="st8" d="M307.2,229.4c-0.5-0.3-1.5-0.2-1.3-0.7c0.3-0.7,1.2-0.2,1.8,0.2C307.5,229,307.4,229.2,307.2,229.4z"/>
<path class="st8" d="M304.3,227.7c0.1,0.1,0.2,0.3,0.3,0.5c-0.2,0.1-0.4,0.2-0.5,0.2c-0.2-0.1-0.4-0.2-0.5-0.4
	C303.7,228,303.9,227.9,304.3,227.7z"/>
<path class="st0" d="M255.9,286.6c3.9,4.6,7.8,9.1,11.9,13.5c2.7,2.8,5.6,3.1,8.9,1.8c2.6-1,4.9-2.5,6.5-5.1
	c-1.6,0.8-3.3,1.5-4.9,2.3c-2.2,1-3.8,0.3-5.2-1.4c-2.2-2.8-4-6-5.6-9.1c-1.5-2.7,1.3-2.6,2.6-2.9c5.6-1.3,12.8,1.8,15.9,6.9
	c2.9,4.7,3,9.5,0.6,14.4c-3.8,0.1-7.2-2.2-11.6-2c2,1.9,3.8,2.6,5.8,3.1c1.2,2.3,2.6,3,4.4,0.6c0.6,0,1.1,0,1.7,0
	c2,0.7,3.3,2.2,4.3,3.9c1.3,2.1,2.5,1.9,4.3,0.3c2.5-2.3,4.6-5.1,5.7-8.2c1.2-3.2,3.7-3.9,6.3-4.9c1.9-0.7,4.5,0.2,5.6-2
	c1.3-2.6,0.3-5.4-0.4-8c-1.4-4.6-3.3-9.1-7-12.5c3.8-1.4,10.5,5.1,11.8,10.9c1.4,6.3-3.1,11.1-3.8,17c1.2-1.3,2.3-2.5,3.5-3.8
	c3.9-4,9.1-6.6,12.2-11.6c-0.1,0.8-0.1,1.6-0.2,2.4c-2.5,5-5.8,9.5-9.5,13.7c-0.6,1-1.3,2-1.9,3c-0.5,0.6-0.9,1.1-1.4,1.7
	c-0.2,0-0.4,0.1-0.6,0.2c-0.1,0.2-0.2,0.3-0.3,0.5c-0.1,0.2-0.2,0.4-0.4,0.7c-1.8,0.8-3.3,2.1-3.6,3.9c-0.3,2-1.3,2.1-3,2.3
	c-1.7,0.2-4.1-0.4-4,2.7c-5,1.5-10.1,3-15.1,4.4c-1.9-0.2-3.5,0.4-4.9,1.6c-0.8,0.7-1.5,1.6-2.7,1.4c-5.4-1-11-0.8-15.7-4.4
	c-1.8-1.4-3.8-3.6-6.7-1.8c0-0.5,0-1,0-1.5c2.7-1.3-0.2-2.9,0.3-4.3c3.1-0.1,5.7-2.8,5.6-4.6c-0.2-3-1.9-6.2-4.9-8.1
	c-3.4-4.7-6.4-9.8-9-15c-1.6-3.3-1.7-3.2,1.8-4.5C254.1,285,255,285.8,255.9,286.6z"/>
<path class="st13" d="M282.1,342.9c-12.1-3.7-24.4-7-36.7-10c-8.9-2.2-17.9-4-26.6-6.8c-1-1.7,0.4-2,1.5-2.4c2.7-1.1,5.5-2,8.2-3
	c2.9-0.6,5.6-1.8,8.3-3.1c3.7-0.5,7.5,0,11.1-0.2c3.5-0.2,7-1.9,10.5-3c0.2,0,0.4,0.1,0.5,0.2c-0.1,1-0.9,1-1.6,1.3
	c-5.8,1.8-11.4,4.3-17.4,5.6c-1.5,0.3-3,0.9-4.5,1.4c-0.9,0.3-1.9,0.7-1.8,1.9c0.1,1,1.1,1,1.9,1.3c4.5,1.6,9.1,2.6,13.8,0.7
	c1-0.4,2.2-0.9,3.1,0.4c1.1,1.6,2.8,1.6,4.5,1.8c8.4,2,16.6,4.6,25.2,5.8c1.9,0.5,3.9,0.9,5.8,1.4c-0.2,0.4-1.3,0.7,0,1.1
	c3.5,1.2,6.8,0.3,10.1-0.6c2.6-0.7,5.2-1.6,7.8-2.3c1.2-0.3,2.5-0.6,3.6,0.3c-5.5,2.8-11.5,4.2-17.2,6.5
	C288.9,342.3,285.6,343.2,282.1,342.9z"/>
<path class="st5" d="M282.1,342.9c3.5,0.2,6.8-0.6,10-1.9c5.7-2.2,11.7-3.7,17.2-6.5c5.5-1.5,10.6-4.1,16-6.1
	c1.2-0.4,2.3-1.1,3.6-0.9c0.3,1.3,1.1,1.1,2.1,1c6.2-0.7,11.9-2.8,17.8-4.5c0.8-0.2,1.7-0.4,1.7-1.5c0.1-1.4,1.4-1.4,2.3-1.8
	c0,1.1-0.9,3.1,1.3,2.3c2.5-0.9,5.1-0.7,7.5-1.9c0.4,1.9-1.2,2-2.3,2.4c-10.7,4.1-21.4,8.2-32.1,12.4c-1.4,0.6-3.5,0.4-4,2.5
	c-12,3.1-23.5,7.8-35.3,11.6c-1.9,0.6-3.8,1.6-6,1.1C282.3,348.4,282.3,345.7,282.1,342.9z"/>
<path class="st2" d="M287.9,336.1c-1.9-0.5-3.9-0.9-5.8-1.4c1.1-0.7,2.2-1.3,3.3-2c0,0,0.3,0,0.3,0l0.3,0c0.3,1.9,1.2,2.4,2.7,1
	c0.8-0.7,1.4-1.5,2.1-2.2c0.4-1.6,2-1.4,3-1.8c3.8-1.1,7.6-2.3,11.2-3.8c9.3-3.1,18.6-6.1,27.9-9.2c0.6,0.1,1.3,0.2,1.9,0.4
	c0.8,0.2,1.5,0.6,1.4,1.5c-0.1,0.7-0.8,0.9-1.4,1.1c-3.8,1.2-7.6,2.4-11.4,3.6c-3.5-0.5-6.3,1.4-9.2,3c-4.7,1.7-9.5,3.5-14.2,5.2
	c-0.3,0.2-0.7,0.4-1,0.6C294.9,332.5,291.4,334.3,287.9,336.1z"/>
<path class="st10" d="M322.6,249.9c-0.2-2.6-0.4-5.2-3.7-6c-1.6-0.4-0.4-1.1-0.1-1.7c1.8,0.1,4.1,1,3.3-2.4c0.5-0.7,1-1.3,2-1.3
	c0.9,0.1,1.7,0.3,2.1,1.1c0.7,1.3-1,1.2-1.3,2.2c1.7,1,4.1,1.3,4.8,3.7c0,4.4-0.3,8.8,0.1,13.2c0.3,3.8-1.4,5.2-4.8,5.4
	c0.5-2.2-0.6-4.1-1.4-6c-0.4-1.2-1-2.3-0.9-3.6C323.6,252.9,323.9,251.4,322.6,249.9z"/>
<path class="st15" d="M332.9,316.6c-9.3,3.1-18.6,6.1-27.9,9.2c-1.1-1.2,0.1-1.5,0.7-2c1.3-1,2.7-1.9,3-3.7c2-0.6,4-1.1,5.9-1.8
	c2.2-0.8,2.7-2.7,1.4-4.5c-0.4-0.6-0.7-1.3-1-1.9c0.1-0.2,0.2-0.4,0.4-0.7c0.2-0.1,0.3-0.3,0.3-0.5c0.2-0.1,0.4-0.2,0.6-0.2
	c0.7,1.8,2.4,1.6,3.9,2C324.5,313.5,329,314,332.9,316.6z"/>
<path class="st10" d="M338,243.1c-2-0.7-2.5-2.3-2.5-4.2c0-3.4-0.1-6.6-3.2-9c-1.7-1.3-0.8-2.9,1-3.6c3-1.1,6-1.8,9.2-1.6
	c-0.1,4.1-0.1,8.2-0.2,12.3c0,1.9,0.5,4.1-2.5,4.5C339.1,241.5,338.6,242.5,338,243.1z"/>
<path class="st2" d="M339.7,350.5c-2.2-3.1-5.8-4.4-8.5-6.8c-1.2-1-3-1.6-2.6-3.8c6.9,0.9,13.3,3.6,20.1,5c1.1,0.2,2.3,0.5,3.4,0.7
	c-0.9,1.9-2.9,1.6-4.5,2.2C345.1,348.9,342.4,349.6,339.7,350.5z"/>
<path class="st2" d="M317.6,308.9c0.6-1,1.3-2,1.9-3c0.8,1.2,2.1,1.3,3.3,1.6c7.6,1.9,15.2,3.8,22.9,5.8c0.7,0.2,1.7,0.2,2.1,1.4
	c-2.1,1.4-4.3,1.2-6.5,0.6c-6.5-1.8-12.9-3.6-19.4-5.4C320.5,309.5,319,309.2,317.6,308.9z"/>
<path class="st8" d="M352.9,320.9c-0.9,0.4-2.2,0.3-2.3,1.8c-0.1,1.1-1,1.2-1.7,1.5c-5.9,1.7-11.7,3.9-17.8,4.5
	c-1,0.1-1.9,0.4-2.1-1c7.3-2.6,14.6-5.2,21.8-7.9c2.2,0.8,3.9-1.2,6-1.3c0.6,0,1.3-0.5,1.6,0.3c0.2,0.8-0.5,1-1.1,1.1
	C355.7,320.3,354.3,320.6,352.9,320.9z"/>
<path class="st2" d="M352.9,320.9c1.4-0.3,2.8-0.6,4.3-0.9c0.6-0.1,1.4-0.4,1.1-1.1c-0.2-0.8-1-0.3-1.6-0.3c-2.1,0.1-3.7,2-6,1.3
	c2.9-1.8,6.2-2.4,9.3-3.6c1.2-0.5,1.8-0.1,1.7,1.3c-0.1,1.3-0.1,2.5-0.2,3.8c-2.3,1.2-5,1-7.5,1.9C352,324,352.9,321.9,352.9,320.9z
	"/>
<path class="st3" d="M314.1,326.1c2.8-1.6,5.6-3.5,9.2-3C320.5,324.8,317.6,326.3,314.1,326.1z"/>
<path class="st13" d="M298.9,332c0.3-0.2,0.7-0.4,1-0.6C299.6,331.6,299.2,331.8,298.9,332z"/>
<path class="st4" d="M258.8,314.6c-0.2-0.1-0.3-0.2-0.5-0.2c-0.1-0.2-0.2-0.4-0.2-0.6c-0.2-0.2-0.4-0.5-0.5-0.7
	c-0.7-1.5-1.5-3-2.3-4.4c-1.7-3.2-1.1-4.5,2.6-4.9c0.8-0.1,1.7-0.1,2.5-0.1c3,1.9,4.7,5.1,4.9,8.1c0.1,1.8-2.5,4.4-5.6,4.6
	C259.4,315.7,259.6,314.9,258.8,314.6z"/>
<path class="st0" d="M268.6,268.3c0.8,0.1,1.6,0.2,2.5,0.3c-1.3,0.2-2.3,0.6-2.1,2.2c0.1,1.3,0.9,1.7,2.1,1.9
	c4.2,0.8,8.5,0.7,12.7,0.8c0.2,1.5,0.5,3.1-0.1,4.8c-4.8-1.6-9.7-2.8-14.7-3c-0.2-0.1-0.4-0.1-0.6-0.2c-1.6-0.9-4.3-0.8-4.4-3.3
	C264,269,266.7,269.1,268.6,268.3z"/>
<path class="st13" d="M257.6,313.1c0.2,0.2,0.4,0.5,0.5,0.7C257.9,313.6,257.7,313.3,257.6,313.1z"/>
<path class="st5" d="M207.7,337.1c-0.2,0-0.4,0-0.6,0c-0.1-7.3-0.1-14.7-0.2-22c0-7.2,0-14.4-0.1-21.6c0-0.9-0.1-1.7-0.1-2.6
	c0-0.5,0-1,0-1.4c0-0.6,0-1.2,0-1.8c0-1.4,0-2.8,0-4.3c0.7-5.6,0.2-11.3,0.3-16.9c0.1-6.3,0-12.6,0-18.9c0-1.1-0.5-2.3,0.6-3.2
	c0.9,8.2,0.5,16.4,0.5,24.7c-1.1,5.2-0.3,10.6-0.5,15.8c-0.1,2-0.6,4.2,0.5,6.1c0,0.4,0.1,0.9,0.1,1.3c-0.6,0.8-0.6,1.7-0.4,2.7
	c0,12.8,0,25.6,0.1,38.4C207.9,334.6,207.8,335.8,207.7,337.1z"/>
<path class="st10" d="M191.8,290.4c-0.4-14.6,1.1-29.2,0.5-44.5c1.8,1.5,1.8,2.9,1.8,3.8c0.1,13.8,0.1,27.5,0.2,41.3
	C193.4,290.8,192.6,290.6,191.8,290.4z"/>
<path class="st10" d="M206.7,289.4c0,0.5,0,1,0,1.4c-0.6,0.8-0.4,1.6-0.3,2.5c-0.4,0.1-0.8,0.2-1.2,0.3c0-0.6,0-1.2,0-1.8
	c1-1,0.5-2.2,0.5-3.3c0.1-7.2,0.2-14.4,0.3-21.7c0.6,4.3,0.1,8.6,0.3,12.9c0,1.3-0.2,2.5,0.5,3.7c0,1.4,0,2.8,0,4.3
	C206.2,288.2,206.2,288.8,206.7,289.4z"/>
<path class="st3" d="M208.1,291c-1.1-2-0.6-4.1-0.5-6.1c0.2-5.3-0.7-10.6,0.5-15.8C208.4,276.3,208.4,283.6,208.1,291z"/>
<path class="st2" d="M131.5,306.9c-0.6-0.1-0.9-0.5-1.1-1C131.2,305.7,131.5,306.1,131.5,306.9z"/>
<path class="st10" d="M242.9,338.7c-0.4-0.1-0.7-0.3-1.1-0.4c-0.8-1.8,0.1-2.6,1.7-2.8c0.6-0.1,1.2,0.4,1.3,1.1
	C245,337.9,243.4,337.8,242.9,338.7z"/>
<path class="st0" d="M206.4,293.3c-0.1-0.8-0.3-1.7,0.3-2.5c0,0.9,0.1,1.7,0.1,2.6C206.7,293.4,206.5,293.3,206.4,293.3z"/>
<path class="st2" d="M330.8,222.5c4.3-0.2,8.2-1.9,12.1-3.5c0,0.7,0,1.5-0.8,1.9c-3.2,1.5-6.5,2.7-10.2,2.5
	C331.4,223.3,331,222.9,330.8,222.5z"/>
<path class="st10" d="M315,261.6c0-1.1,0-2.2,1.5-2.2c1.3,0,1.7,1,1.7,2.2c0,1.2-0.4,2.1-1.7,2.2C315,263.9,315,262.7,315,261.6z"/>
<path class="st2" d="M322.6,249.9c1.2,1.5,1,3,0.1,4.5C320.7,253,320.7,251.5,322.6,249.9z"/>
<path class="st2" d="M322.1,239.8c0.9,3.4-1.5,2.5-3.3,2.4C319.3,240.6,320.7,240.1,322.1,239.8z"/>
<path class="st0" d="M282.7,210.7c0,4.9-0.1,9.8,0.1,14.8c0.1,2.4-0.8,3.8-3.2,4.1c-1.2,0.1-2.1,0.8-3.2,1.5
	c1.2-6.2-0.2-12.4,1.3-18.5C278.8,210.3,280.8,210.7,282.7,210.7z"/>
<path class="st11" d="M284.9,208.7c-0.1-1-0.2-2,0.3-3C286.3,206.8,286.6,207.8,284.9,208.7z"/>
<path class="st0" d="M276.5,212.3c0,0.2-0.2,0.4-0.4,0.4C276,212.4,276.2,212.2,276.5,212.3z"/>
<path class="st11" d="M312.5,215.5c-3.1,0-5.8,1.5-8.8,1.9c-1.7,0.2-3.7,1.3-5-0.9c3.3-1.3,6.6-2.6,9.9-3.9c1.9-0.7,3.6-0.8,4.5,1.6
	C312.8,214.6,312.6,215,312.5,215.5z"/>
<path class="st10" d="M312.5,215.5c0.2-0.4,0.3-0.8,0.5-1.3c2.5,0.4,5.8-0.8,6.2,3.4c-1,1.9-3,2.1-4.8,2.7
	C313.1,219,312.1,217.5,312.5,215.5z"/>
<path class="st11" d="M293.2,214.5c-2.2,0.6-4.1,2.4-6.7,1.9c2.2-3.7,5.8-5,9.8-5.5c0,0.3-0.1,0.7-0.1,1
	C295.1,212.6,294,213.4,293.2,214.5z"/>
<path class="st2" d="M208.7,200.4c-0.1,1.1-0.5,2.6-1.9,2.6c-1.7,0-2.5-1.6-2.6-3c-0.1-1.4,0.7-2.8,2.3-2.7
	C208.1,197.3,208.7,198.7,208.7,200.4z"/>
<path class="st11" d="M203.5,219c-2.2-0.4-3.7-2.5-6.1-2.2c-0.2-1.5,4.1-0.4,1.4-2.9c1.9-0.3,3.4,1.1,5.2,1.3
	C203.8,216.5,203.6,217.7,203.5,219z M201.7,215.8c0-0.1-0.1-0.1-0.1-0.2c0,0.1-0.1,0.1-0.1,0.2c0,0.1,0.1,0.1,0.1,0.2
	C201.6,215.9,201.6,215.9,201.7,215.8z"/>
<path class="st2" d="M203.5,219c0.1-1.3,0.3-2.5,0.4-3.8c0.8,0.2,1.5,0.4,2.3,0.6c0,1,0,1.9-0.1,2.9
	C205.2,218.8,204.4,218.9,203.5,219z"/>
<path class="st0" d="M254.6,210c-0.3,1.6,0,3.1,0.2,4.6c0.3,1.7,0.7,3.6-1.1,4.8c-1.3,0.2-2.5,0.4-3.8,0.6c1.1-1.5-0.2-2.7-0.8-3.7
	c-1.5-2.8-1.1-6.1-2.2-9C249.6,207.9,252.2,208.6,254.6,210z"/>
<path class="st0" d="M246.1,207.1c0.3-0.1,0.6,0,0.7,0.3C246.5,207.6,246.3,207.4,246.1,207.1z"/>
<path class="st8" d="M271.9,236.2c-1.1,0.7-2.3,0.3-3.4,0.4C269.6,235.7,270.8,236.2,271.9,236.2z"/>
<path class="st0" d="M318.4,276c5,0.1,7.5,1.8,7.9,5.4c0.2,1.9-0.3,2.9-2.4,3.3c-5.8,1.1-6.4,0.8-8.3-4.9
	C314.7,276.7,315.2,275.9,318.4,276z"/>
<path class="st10" d="M303.6,222.9c-0.4,0-0.8,0-1.2-0.1c-2.1-1.6-5,0.8-7.1-1.6c2.6-3.2,6.2-2.2,9.6-2.2c0.8,1,2.1,1,3.1,1.6
	c0.5,0.7,1,1.5,1.6,2.2c-1.2,2.8-3.2,0.3-4.7,0.7C304.6,223,304.2,222.8,303.6,222.9z"/>
<path class="st2" d="M308.1,220.6c-1-0.6-2.3-0.6-3.1-1.6C307.3,217,308.1,218,308.1,220.6z"/>
<path class="st8" d="M303.6,222.9c0.6,0,1,0.2,1.3,0.6c-0.1,0.8-0.6,1.1-1.3,1.2C303.7,224.1,303.6,223.5,303.6,222.9z"/>
<path class="st2" d="M258.8,314.6c0.7,0.4,0.5,1.2,0.8,1.7c-0.4,1.4,2.5,3-0.3,4.3c-4.7,0.3-9.3,1.4-13.8,2.5
	c-1.5,0.4-2.5,1.1-2.2,2.5c0.4,1.6,1.8,0.8,2.9,0.5c4.5-1.1,8.8-2.5,13.1-4.1c2.9-1.7,4.9,0.5,6.7,1.8c4.7,3.6,10.4,3.4,15.7,4.4
	c1.2,0.2,1.9-0.6,2.7-1.4c1.4-1.3,3-1.9,4.9-1.6c-0.3,1.5-1.7,1.9-2.7,2.8c-1,0.9-1.4,1.7,0,2.5c0,0.3-0.1,0.6-0.1,1
	c-1.2,0-2.5,0-3.7-0.1l0,0c-0.7-0.8-1.5-0.8-2.3-0.2c-5.1-0.5-10.1-1.8-14.8-3.4c-3.4-1.1-5.9,0-8.8,1c-1.6-0.2-3.4-0.2-4.5-1.8
	c-0.9-1.3-2.1-0.8-3.1-0.4c-4.7,1.9-9.3,0.9-13.8-0.7c-0.8-0.3-1.8-0.3-1.9-1.3c-0.1-1.2,1-1.6,1.8-1.9c1.5-0.6,3-1.1,4.5-1.4
	c6-1.2,11.6-3.7,17.4-5.6C258,315.6,258.8,315.6,258.8,314.6z"/>
<path class="st5" d="M286.7,330.6c-1.4-0.8-1-1.6,0-2.5c0.9-0.9,2.4-1.2,2.7-2.8c5-1.5,10.1-3,15.1-4.4c1.5-0.2,2.9-0.5,4.4-0.7
	c-0.3,1.8-1.7,2.6-3,3.7c-0.7,0.5-1.8,0.9-0.7,2c-3.7,1.5-7.4,2.7-11.2,3.8c-1.1,0.3-2.6,0.2-3,1.8
	C289.4,331.2,288,330.9,286.7,330.6z"/>
<path class="st8" d="M259.4,322c-4.3,1.6-8.7,3-13.1,4.1c-1,0.2-2.5,1-2.9-0.5c-0.3-1.3,0.7-2.1,2.2-2.5c4.6-1.2,9.1-2.2,13.8-2.5
	C259.4,321.1,259.4,321.5,259.4,322z"/>
<path class="st2" d="M308.7,320.2c-1.5,0.2-2.9,0.5-4.4,0.7c-0.1-3,2.3-2.5,4-2.7c1.6-0.2,2.6-0.2,3-2.3c0.3-1.9,1.8-3.2,3.6-3.9
	c0.3,0.6,0.6,1.3,1,1.9c1.3,1.8,0.8,3.6-1.4,4.5C312.7,319.1,310.7,319.6,308.7,320.2z"/>
<path class="st4" d="M280.6,308.1c1.5-0.2,3,0.2,4.4,0.6C283.2,311,281.8,310.4,280.6,308.1z"/>
<path class="st2" d="M315.6,310.8c0,0.2-0.1,0.4-0.3,0.5C315.4,311.1,315.5,311,315.6,310.8z"/>
<path class="st8" d="M256.9,328.9c2.8-1,5.3-2.1,8.8-1c4.8,1.6,9.8,2.8,14.8,3.4c0.8,0.1,1.5,0.1,2.3,0.2c0,0,0,0,0,0
	c0.9,0.4,1.7,0.8,2.6,1.2c-1.1,0.7-2.2,1.3-3.3,2C273.5,333.5,265.3,330.9,256.9,328.9z"/>
<path class="st8" d="M286.7,330.6c1.4,0.3,2.7,0.6,4.1,0.8c-0.7,0.7-1.4,1.5-2.1,2.2c-1.5,1.4-2.3,0.9-2.7-1
	c0.4-0.3,0.7-0.6,0.6-1.1C286.6,331.2,286.6,330.9,286.7,330.6z"/>
<path class="st5" d="M286.5,331.6c0.1,0.5-0.2,0.9-0.6,1.1c0,0-0.3,0-0.3,0s-0.3,0-0.3,0c-0.9-0.4-1.7-0.8-2.6-1.2
	C284,331.5,285.3,331.5,286.5,331.6z"/>
<path class="st0" d="M206.7,289.4c-0.5-0.6-0.5-1.2,0-1.8C206.7,288.2,206.7,288.8,206.7,289.4z"/>
<path class="st10" d="M201.7,215.8c0,0.1-0.1,0.1-0.1,0.2c0-0.1-0.1-0.1-0.1-0.2c0-0.1,0.1-0.1,0.1-0.2
	C201.6,215.7,201.7,215.8,201.7,215.8z"/>
<path class="st5" d="M282.8,331.5c-0.8-0.1-1.5-0.1-2.3-0.2C281.3,330.7,282.1,330.7,282.8,331.5z"/>
</svg>
